<?xml version="1.0" encoding="UTF-8"?>
<svg xmlns="http://www.w3.org/2000/svg" xmlns:xlink="http://www.w3.org/1999/xlink" width="500pt" height="500pt" viewBox="0 0 500 500" version="1.1">
<g id="surface1">
<path style=" stroke:none;fill-rule:nonzero;fill:#747474;fill-opacity:1;" d="M 246.777344 32.863281 C 200.234375 33.910156 170.78125 52.742188 158.109375 81.84375 C 146.058594 109.554688 148.578125 144.46875 157.179688 180.742188 C 152.570313 186.167969 148.769531 193.800781 149.738281 205.234375 L 149.738281 205.851563 C 151.40625 217.945313 155.046875 226.46875 159.660156 232.515625 C 161.867188 235.382813 165.007813 235.539063 167.722656 237.164063 C 170.125 250.691406 175.511719 263.59375 181.671875 273.746094 C 181.980469 275.21875 182.601563 276.578125 183.53125 277.777344 C 183.53125 277.777344 184.539063 279.054688 184.773438 279.328125 C 187.871094 283.976563 189.421875 290.449219 189.421875 297.617188 C 189.421875 305.253906 189.304688 312.34375 188.492188 320.25 C 185.507813 327.769531 178.066406 333.773438 166.171875 339.78125 C 153.730469 346.058594 137.453125 351.832031 120.90625 359.003906 C 104.359375 366.171875 87.582031 374.773438 74.09375 388.453125 C 60.609375 402.132813 50.960938 421.085938 49.601563 445.808594 L 48.984375 456.347656 L 447.046875 456.347656 L 446.429688 445.808594 C 445.070313 421.085938 435.65625 402.171875 422.246094 388.453125 C 408.839844 374.738281 391.980469 366.171875 375.433594 359.003906 C 358.886719 351.832031 342.496094 346.097656 329.859375 339.78125 C 317.617188 333.660156 309.941406 327.417969 306.609375 319.628906 C 305.835938 310.253906 305.679688 302.851563 305.679688 294.519531 C 305.679688 289.210938 307.5 284.40625 310.640625 279.636719 C 310.71875 279.523438 310.871094 279.445313 310.949219 279.328125 C 310.988281 279.25 311.570313 278.707031 311.570313 278.707031 C 312.808594 277.429688 313.664063 275.800781 314.050781 274.058594 C 320.058594 263.75 325.054688 250.652344 327.382813 237.476563 C 330.480469 235.847656 333.96875 235.652344 336.371094 232.515625 C 341.136719 226.277344 343.929688 217.402344 345.050781 205.234375 C 345.945313 194.730469 342.921875 187.097656 338.230469 181.363281 C 343.386719 165.472656 349.507813 140.050781 347.53125 114.085938 C 346.445313 99.828125 342.6875 85.605469 334.203125 73.785156 C 326.527344 63.089844 314.128906 55.765625 298.550781 52.394531 C 288.046875 38.363281 268.980469 32.863281 247.085938 32.863281 Z M 247.085938 52.703125 C 247.203125 52.703125 247.28125 52.703125 247.394531 52.703125 C 267.199219 52.78125 279.871094 58.359375 283.976563 65.414063 L 286.457031 69.753906 L 291.417969 70.375 C 305.058594 72.273438 312.539063 77.542969 318.082031 85.253906 C 323.621094 92.96875 326.800781 103.742188 327.691406 115.636719 C 329.511719 139.46875 322.613281 167.410156 318.082031 180.121094 L 314.980469 188.492188 L 322.730469 192.523438 C 322.652344 192.792969 325.910156 196.085938 325.519531 203.371094 C 325.519531 203.527344 325.519531 203.527344 325.519531 203.683594 C 324.589844 213.023438 322.1875 218.292969 320.558594 220.425781 C 318.894531 222.59375 318.042969 222.285156 318.390625 222.285156 L 309.710938 222.285156 L 308.46875 230.964844 C 306.765625 243.832031 300.214844 260.027344 294.519531 268.167969 L 294.207031 268.167969 C 293.628906 269.019531 293.203125 270.027344 292.660156 270.957031 C 290.0625 273.980469 286.148438 277.972656 280.566406 282.738281 C 271.304688 290.644531 259.023438 297.617188 248.015625 297.617188 C 237.085938 297.617188 224.6875 290.292969 215.152344 282.117188 C 206.898438 275.027344 201.976563 268.941406 200.582031 267.238281 C 200.542969 267.160156 200.621094 267.003906 200.582031 266.925781 C 194.730469 258.480469 188.027344 243.675781 186.320313 230.964844 L 185.390625 222.285156 L 177.332031 222.285156 C 176.984375 222.128906 176.050781 221.625 175.160156 220.425781 C 173.417969 218.136719 170.9375 212.789063 169.582031 203.683594 C 169.582031 203.488281 169.582031 203.566406 169.582031 203.371094 C 169.542969 203.21875 169.621094 203.21875 169.582031 203.0625 C 169.425781 195.546875 174.074219 191.359375 173.300781 191.902344 L 178.882813 187.871094 L 177.332031 181.050781 C 168.1875 144.894531 166.75 112.148438 176.402344 89.90625 C 186.050781 67.738281 205.582031 53.710938 247.085938 52.703125 Z M 209.261719 302.890625 C 219.726563 310.601563 232.824219 317.460938 248.015625 317.460938 C 262.898438 317.460938 275.644531 310.949219 285.839844 303.507813 C 285.878906 309.554688 286.070313 315.753906 286.769531 323.351563 L 286.769531 324.589844 L 287.386719 325.832031 C 289.132813 330.402344 291.613281 334.277344 294.519531 337.921875 C 294.402344 338.308594 294.285156 338.734375 294.207031 339.160156 C 294.207031 339.160156 291.84375 345.671875 284.910156 352.800781 C 277.972656 359.933594 267.199219 367.0625 248.015625 367.0625 C 228.910156 367.0625 217.75 359.621094 210.503906 352.183594 C 203.257813 344.742188 200.894531 337.921875 200.894531 337.921875 C 203.761719 334.203125 206.125 330.210938 207.714844 325.519531 L 208.332031 323.660156 C 209.1875 316.144531 209.261719 309.359375 209.261719 302.890625 Z M 310.019531 351.5625 C 313.507813 353.808594 317.113281 355.902344 320.871094 357.761719 C 335.363281 364.972656 351.796875 370.550781 367.375 377.292969 C 382.953125 384.035156 397.484375 391.671875 407.984375 402.40625 C 416.355469 410.96875 421.394531 422.363281 424.105469 436.507813 L 71.925781 436.507813 C 74.636719 422.363281 79.636719 410.96875 88.046875 402.40625 C 98.585938 391.671875 113.390625 384.035156 128.96875 377.292969 C 144.546875 370.550781 160.824219 365.007813 175.160156 357.761719 C 178.726563 355.941406 182.371094 354.042969 185.703125 351.871094 C 187.910156 355.863281 191.320313 361.058594 196.242188 366.132813 C 206.355469 376.558594 223.484375 386.90625 248.015625 386.90625 C 272.46875 386.90625 289.25 376.675781 299.167969 366.445313 C 304.59375 360.863281 307.886719 355.671875 310.019531 351.5625 Z "/>
</g>
</svg>
