<?xml version="1.0" encoding="UTF-8"?>
<svg xmlns="http://www.w3.org/2000/svg" xmlns:xlink="http://www.w3.org/1999/xlink" width="96pt" height="96pt" viewBox="0 0 96 96" version="1.1">
<g id="surface1">
<path style=" stroke:none;fill-rule:nonzero;fill:#FFFFFF;fill-opacity:1;" d="M 48 8 C 25.90625 8 8 25.90625 8 48 C 8 70.09375 25.90625 88 48 88 C 70.09375 88 88 70.09375 88 48 C 88 25.90625 70.09375 8 48 8 Z M 60 52 L 52 52 L 52 60 C 52 62.203125 50.203125 64 48 64 C 45.796875 64 44 62.203125 44 60 L 44 52 L 36 52 C 33.796875 52 32 50.203125 32 48 C 32 45.796875 33.796875 44 36 44 L 44 44 L 44 36 C 44 33.796875 45.796875 32 48 32 C 50.203125 32 52 33.796875 52 36 L 52 44 L 60 44 C 62.203125 44 64 45.796875 64 48 C 64 50.203125 62.203125 52 60 52 Z "/>
</g>
</svg>
