<?xml version="1.0" encoding="UTF-8"?>
<svg xmlns="http://www.w3.org/2000/svg" xmlns:xlink="http://www.w3.org/1999/xlink" width="512pt" height="512pt" viewBox="0 0 512 512" version="1.1">
<g id="surface1">
<path style=" stroke:none;fill-rule:nonzero;fill:#747474;fill-opacity:1;" d="M 96 64 L 96 448 L 273.5 448 C 295.6875 486.1875 336.8125 512 384 512 C 454.5 512 512 454.5 512 384 C 512 324.625 471 274.875 416 260.5 L 416 64 Z M 128 96 L 384 96 L 384 176 L 128 176 Z M 128 208 L 384 208 L 384 256 C 343.6875 256 308 274.75 284.5 304 L 128 304 Z M 384 288 C 437.1875 288 480 330.8125 480 384 C 480 437.1875 437.1875 480 384 480 C 330.8125 480 288 437.1875 288 384 C 288 330.8125 330.8125 288 384 288 Z M 368 320 L 368 368 L 320 368 L 320 400 L 368 400 L 368 448 L 400 448 L 400 400 L 448 400 L 448 368 L 400 368 L 400 320 Z M 128 336 L 265.5 336 C 259.375 350.875 256 366.9375 256 384 C 256 395.125 257.8125 405.6875 260.5 416 L 128 416 Z "/>
</g>
</svg>
