<?xml version="1.0" encoding="UTF-8"?>
<svg xmlns="http://www.w3.org/2000/svg" xmlns:xlink="http://www.w3.org/1999/xlink" width="96pt" height="96pt" viewBox="0 0 96 96" version="1.1">
<g id="surface1">
<path style=" stroke:none;fill-rule:nonzero;fill:#747474;fill-opacity:1;" d="M 8 48 C 8 70.09375 25.90625 88 48 88 C 70.09375 88 88 70.09375 88 48 C 88 25.90625 70.09375 8 48 8 C 25.90625 8 8 25.90625 8 48 Z M 68 36 L 68 48 L 48 64 L 28 48 L 28 36 L 48 52 Z M 80 48 C 80 65.671875 65.671875 80 48 80 C 30.328125 80 16 65.671875 16 48 C 16 30.328125 30.328125 16 48 16 C 65.671875 16 80 30.328125 80 48 Z "/>
</g>
</svg>
