<?xml version="1.0" encoding="UTF-8"?>
<svg xmlns="http://www.w3.org/2000/svg" xmlns:xlink="http://www.w3.org/1999/xlink" width="480pt" height="480pt" viewBox="0 0 480 480" version="1.1">
<g id="surface1">
<path style=" stroke:none;fill-rule:nonzero;fill:#FFFFFF;fill-opacity:1;" d="M 54 108 C 44.132813 108 36 116.132813 36 126 L 36 354 C 36 363.867188 44.132813 372 54 372 L 162 372 C 166.664063 372 170.789063 369.960938 174 367.007813 C 177.210938 369.960938 181.335938 372 186 372 L 294 372 C 298.664063 372 302.789063 369.960938 306 367.007813 C 309.210938 369.960938 313.335938 372 318 372 L 426 372 C 435.867188 372 444 363.867188 444 354 L 444 126 C 444 116.132813 435.867188 108 426 108 L 318 108 C 313.335938 108 309.210938 110.039063 306 112.992188 C 302.789063 110.039063 298.664063 108 294 108 L 186 108 C 181.335938 108 177.210938 110.039063 174 112.992188 C 170.789063 110.039063 166.664063 108 162 108 Z M 54 120 L 162 120 C 165.398438 120 168 122.601563 168 126 L 180 126 C 180 122.601563 182.601563 120 186 120 L 294 120 C 297.398438 120 300 122.601563 300 126 L 312 126 C 312 122.601563 314.601563 120 318 120 L 336.9375 120 C 337.96875 125.859375 339.609375 131.0625 341.90625 135.585938 C 348.515625 149.15625 360.1875 156.609375 375.234375 156.609375 C 396.75 156.609375 412.007813 141.84375 412.007813 121.171875 C 412.007813 120.773438 411.960938 120.398438 411.9375 120 L 426 120 C 429.398438 120 432 122.601563 432 126 L 432 354 C 432 357.398438 429.398438 360 426 360 L 318 360 C 314.601563 360 312 357.398438 312 354 L 300 354 C 300 357.398438 297.398438 360 294 360 L 186 360 C 182.601563 360 180 357.398438 180 354 L 168 354 C 168 357.398438 165.398438 360 162 360 L 54 360 C 50.601563 360 48 357.398438 48 354 L 48 126 C 48 122.601563 50.601563 120 54 120 Z M 353.90625 120 L 396.257813 120 C 396.28125 120.5625 396.398438 121.078125 396.398438 121.664063 C 396.398438 133.59375 387.1875 142.757813 375.09375 142.757813 C 363 142.757813 353.789063 133.476563 353.789063 121.382813 C 353.789063 120.914063 353.882813 120.46875 353.90625 120 Z M 174 138 C 170.695313 138 168 140.695313 168 144 C 168 147.304688 170.695313 150 174 150 C 177.304688 150 180 147.304688 180 144 C 180 140.695313 177.304688 138 174 138 Z M 306 138 C 302.695313 138 300 140.695313 300 144 C 300 147.304688 302.695313 150 306 150 C 309.304688 150 312 147.304688 312 144 C 312 140.695313 309.304688 138 306 138 Z M 174 162 C 170.695313 162 168 164.695313 168 168 C 168 171.304688 170.695313 174 174 174 C 177.304688 174 180 171.304688 180 168 C 180 164.695313 177.304688 162 174 162 Z M 306 162 C 302.695313 162 300 164.695313 300 168 C 300 171.304688 302.695313 174 306 174 C 309.304688 174 312 171.304688 312 168 C 312 164.695313 309.304688 162 306 162 Z M 174 186 C 170.695313 186 168 188.695313 168 192 C 168 195.304688 170.695313 198 174 198 C 177.304688 198 180 195.304688 180 192 C 180 188.695313 177.304688 186 174 186 Z M 306 186 C 302.695313 186 300 188.695313 300 192 C 300 195.304688 302.695313 198 306 198 C 309.304688 198 312 195.304688 312 192 C 312 188.695313 309.304688 186 306 186 Z M 108.070313 188.226563 C 84.515625 188.226563 70.523438 207.773438 70.523438 241.3125 C 70.523438 275.0625 84.375 294.609375 108.070313 294.585938 C 131.695313 294.585938 145.476563 275.109375 145.476563 241.429688 C 145.476563 207.84375 131.484375 188.226563 108.070313 188.226563 Z M 240.070313 188.226563 C 216.515625 188.226563 202.523438 207.773438 202.523438 241.3125 C 202.523438 275.0625 216.375 294.609375 240.070313 294.585938 C 263.695313 294.585938 277.476563 275.109375 277.476563 241.429688 C 277.476563 207.84375 263.484375 188.226563 240.070313 188.226563 Z M 108.070313 202.007813 C 121.710938 202.007813 129.585938 215.859375 129.585938 241.3125 C 129.585938 267.046875 121.851563 280.828125 108.070313 280.828125 C 94.289063 280.828125 86.414063 266.976563 86.414063 241.3125 C 86.414063 215.929688 94.429688 202.007813 108.070313 202.007813 Z M 240.070313 202.007813 C 253.710938 202.007813 261.585938 215.859375 261.585938 241.3125 C 261.585938 267.046875 253.851563 280.828125 240.070313 280.828125 C 226.289063 280.828125 218.414063 266.976563 218.414063 241.3125 C 218.414063 215.929688 226.429688 202.007813 240.070313 202.007813 Z M 174 210 C 170.695313 210 168 212.695313 168 216 C 168 219.304688 170.695313 222 174 222 C 177.304688 222 180 219.304688 180 216 C 180 212.695313 177.304688 210 174 210 Z M 306 210 C 302.695313 210 300 212.695313 300 216 C 300 219.304688 302.695313 222 306 222 C 309.304688 222 312 219.304688 312 216 C 312 212.695313 309.304688 210 306 210 Z M 338.320313 226.6875 L 338.320313 240.679688 L 389.929688 240.679688 L 389.929688 241.875 L 345 328.125 L 361.523438 328.125 L 405.679688 240.9375 L 405.679688 226.6875 Z M 174 234 C 170.695313 234 168 236.695313 168 240 C 168 243.304688 170.695313 246 174 246 C 177.304688 246 180 243.304688 180 240 C 180 236.695313 177.304688 234 174 234 Z M 306 234 C 302.695313 234 300 236.695313 300 240 C 300 243.304688 302.695313 246 306 246 C 309.304688 246 312 243.304688 312 240 C 312 236.695313 309.304688 234 306 234 Z M 174 258 C 170.695313 258 168 260.695313 168 264 C 168 267.304688 170.695313 270 174 270 C 177.304688 270 180 267.304688 180 264 C 180 260.695313 177.304688 258 174 258 Z M 306 258 C 302.695313 258 300 260.695313 300 264 C 300 267.304688 302.695313 270 306 270 C 309.304688 270 312 267.304688 312 264 C 312 260.695313 309.304688 258 306 258 Z M 174 282 C 170.695313 282 168 284.695313 168 288 C 168 291.304688 170.695313 294 174 294 C 177.304688 294 180 291.304688 180 288 C 180 284.695313 177.304688 282 174 282 Z M 306 282 C 302.695313 282 300 284.695313 300 288 C 300 291.304688 302.695313 294 306 294 C 309.304688 294 312 291.304688 312 288 C 312 284.695313 309.304688 282 306 282 Z M 174 306 C 170.695313 306 168 308.695313 168 312 C 168 315.304688 170.695313 318 174 318 C 177.304688 318 180 315.304688 180 312 C 180 308.695313 177.304688 306 174 306 Z M 306 306 C 302.695313 306 300 308.695313 300 312 C 300 315.304688 302.695313 318 306 318 C 309.304688 318 312 315.304688 312 312 C 312 308.695313 309.304688 306 306 306 Z M 174 330 C 170.695313 330 168 332.695313 168 336 C 168 339.304688 170.695313 342 174 342 C 177.304688 342 180 339.304688 180 336 C 180 332.695313 177.304688 330 174 330 Z M 306 330 C 302.695313 330 300 332.695313 300 336 C 300 339.304688 302.695313 342 306 342 C 309.304688 342 312 339.304688 312 336 C 312 332.695313 309.304688 330 306 330 Z "/>
</g>
</svg>
