<?xml version="1.0" encoding="UTF-8"?>
<svg xmlns="http://www.w3.org/2000/svg" xmlns:xlink="http://www.w3.org/1999/xlink" width="480pt" height="480pt" viewBox="0 0 480 480" version="1.1">
<g id="surface1">
<path style=" stroke:none;fill-rule:nonzero;fill:#FFFFFF;fill-opacity:1;" d="M 271.125 24 C 247.523438 24 228.140625 42.773438 228 66 L 228 254.882813 L 276 360.210938 L 324 254.882813 L 324 66 C 323.859375 42.773438 304.453125 24 280.875 24 Z M 271.125 36 L 280.875 36 C 298.125 36 311.859375 49.429688 312 66 L 240 66 C 240.140625 49.429688 253.851563 36 271.125 36 Z M 84 66 C 70.804688 66 60 76.804688 60 90 L 60 402 C 60 415.195313 70.804688 426 84 426 L 396 426 C 409.195313 426 420 415.195313 420 402 L 420 90 C 420 76.804688 409.195313 66 396 66 L 342 66 L 342 78 L 396 78 C 402.703125 78 408 83.296875 408 90 L 408 402 C 408 408.703125 402.703125 414 396 414 L 84 414 C 77.296875 414 72 408.703125 72 402 L 72 90 C 72 83.296875 77.296875 78 84 78 L 210 78 L 210 66 Z M 240 78 L 312 78 L 312 114 L 240 114 Z M 108 108 C 104.695313 108 102 110.695313 102 114 C 102 117.304688 104.695313 120 108 120 C 111.304688 120 114 117.304688 114 114 C 114 110.695313 111.304688 108 108 108 Z M 132 108 C 128.695313 108 126 110.695313 126 114 C 126 117.304688 128.695313 120 132 120 C 135.304688 120 138 117.304688 138 114 C 138 110.695313 135.304688 108 132 108 Z M 156 108 C 152.695313 108 150 110.695313 150 114 C 150 117.304688 152.695313 120 156 120 C 159.304688 120 162 117.304688 162 114 C 162 110.695313 159.304688 108 156 108 Z M 180 108 C 176.695313 108 174 110.695313 174 114 C 174 117.304688 176.695313 120 180 120 C 183.304688 120 186 117.304688 186 114 C 186 110.695313 183.304688 108 180 108 Z M 204 108 C 200.695313 108 198 110.695313 198 114 C 198 117.304688 200.695313 120 204 120 C 207.304688 120 210 117.304688 210 114 C 210 110.695313 207.304688 108 204 108 Z M 348 108 C 344.695313 108 342 110.695313 342 114 C 342 117.304688 344.695313 120 348 120 C 351.304688 120 354 117.304688 354 114 C 354 110.695313 351.304688 108 348 108 Z M 372 108 C 368.859375 108 366.234375 110.4375 366 113.578125 C 366 113.71875 366 113.859375 366 114 C 366 117.140625 368.4375 119.765625 371.578125 120 C 371.71875 120 371.859375 120 372 120 C 375.304688 120 378 117.304688 378 114 C 378 110.695313 375.304688 108 372 108 Z M 240 126 L 312 126 L 312 244.335938 C 308.039063 242.039063 303.1875 240 297.539063 240 C 290.414063 240 284.460938 243.234375 280.125 246.117188 C 278.273438 247.359375 278.273438 247.59375 277.03125 248.601563 C 275.8125 247.59375 275.789063 247.359375 273.960938 246.117188 C 269.601563 243.234375 263.671875 240 256.570313 240 C 249.867188 240 244.265625 242.859375 240 245.625 Z M 108 132 C 104.695313 132 102 134.695313 102 138 C 102 141.304688 104.695313 144 108 144 C 111.304688 144 114 141.304688 114 138 C 114 134.695313 111.304688 132 108 132 Z M 372 132 C 368.695313 132 366 134.695313 366 138 C 366 141.304688 368.695313 144 372 144 C 375.304688 144 378 141.304688 378 138 C 378 134.695313 375.304688 132 372 132 Z M 108 156 C 104.695313 156 102 158.695313 102 162 C 102 165.304688 104.695313 168 108 168 C 111.304688 168 114 165.304688 114 162 C 114 158.695313 111.304688 156 108 156 Z M 372 156 C 368.695313 156 366 158.695313 366 162 C 366 165.304688 368.695313 168 372 168 C 375.304688 168 378 165.304688 378 162 C 378 158.695313 375.304688 156 372 156 Z M 108 180 C 104.695313 180 102 182.695313 102 186 C 102 189.304688 104.695313 192 108 192 C 111.304688 192 114 189.304688 114 186 C 114 182.695313 111.304688 180 108 180 Z M 372 180 C 368.695313 180 366 182.695313 366 186 C 366 189.304688 368.695313 192 372 192 C 375.304688 192 378 189.304688 378 186 C 378 182.695313 375.304688 180 372 180 Z M 108 204 C 104.695313 204 102 206.695313 102 210 C 102 213.304688 104.695313 216 108 216 C 111.304688 216 114 213.304688 114 210 C 114 206.695313 111.304688 204 108 204 Z M 372 204 C 368.695313 204 366 206.695313 366 210 C 366 213.304688 368.695313 216 372 216 C 375.304688 216 378 213.304688 378 210 C 378 206.695313 375.304688 204 372 204 Z M 108 228 C 104.695313 228 102 230.695313 102 234 C 102 237.304688 104.695313 240 108 240 C 111.304688 240 114 237.304688 114 234 C 114 230.695313 111.304688 228 108 228 Z M 372 228 C 368.695313 228 366 230.695313 366 234 C 366 237.304688 368.695313 240 372 240 C 375.304688 240 378 237.304688 378 234 C 378 230.695313 375.304688 228 372 228 Z M 108 252 C 104.695313 252 102 254.695313 102 258 C 102 261.304688 104.695313 264 108 264 C 111.304688 264 114 261.304688 114 258 C 114 254.695313 111.304688 252 108 252 Z M 256.570313 252 C 259.664063 252 263.976563 253.898438 267.304688 256.125 C 270.632813 258.328125 272.8125 260.484375 272.8125 260.484375 L 277.03125 264.726563 L 281.273438 260.484375 C 281.273438 260.484375 283.429688 258.328125 286.78125 256.125 C 290.109375 253.898438 294.398438 252 297.539063 252 C 300.632813 252 304.945313 253.898438 308.273438 256.125 C 308.882813 256.523438 309.210938 256.828125 309.75 257.226563 L 288.070313 304.78125 L 263.929688 304.78125 L 242.789063 258.398438 C 243.65625 257.695313 244.546875 256.945313 245.8125 256.125 C 249.140625 253.898438 253.453125 252 256.570313 252 Z M 372 252 C 368.695313 252 366 254.695313 366 258 C 366 261.304688 368.695313 264 372 264 C 375.304688 264 378 261.304688 378 258 C 378 254.695313 375.304688 252 372 252 Z M 108 276 C 104.695313 276 102 278.695313 102 282 C 102 285.304688 104.695313 288 108 288 C 111.304688 288 114 285.304688 114 282 C 114 278.695313 111.304688 276 108 276 Z M 372 276 C 368.695313 276 366 278.695313 366 282 C 366 285.304688 368.695313 288 372 288 C 375.304688 288 378 285.304688 378 282 C 378 278.695313 375.304688 276 372 276 Z M 108 300 C 104.695313 300 102 302.695313 102 306 C 102 309.304688 104.695313 312 108 312 C 111.304688 312 114 309.304688 114 306 C 114 302.695313 111.304688 300 108 300 Z M 372 300 C 368.695313 300 366 302.695313 366 306 C 366 309.304688 368.695313 312 372 312 C 375.304688 312 378 309.304688 378 306 C 378 302.695313 375.304688 300 372 300 Z M 108 324 C 104.695313 324 102 326.695313 102 330 C 102 333.304688 104.695313 336 108 336 C 111.304688 336 114 333.304688 114 330 C 114 326.695313 111.304688 324 108 324 Z M 372 324 C 368.695313 324 366 326.695313 366 330 C 366 333.304688 368.695313 336 372 336 C 375.304688 336 378 333.304688 378 330 C 378 326.695313 375.304688 324 372 324 Z M 108 348 C 104.695313 348 102 350.695313 102 354 C 102 357.304688 104.695313 360 108 360 C 111.304688 360 114 357.304688 114 354 C 114 350.695313 111.304688 348 108 348 Z M 372 348 C 368.695313 348 366 350.695313 366 354 C 366 357.304688 368.695313 360 372 360 C 375.304688 360 378 357.304688 378 354 C 378 350.695313 375.304688 348 372 348 Z M 108 372 C 104.695313 372 102 374.695313 102 378 C 102 381.304688 104.695313 384 108 384 C 111.304688 384 114 381.304688 114 378 C 114 374.695313 111.304688 372 108 372 Z M 132 372 C 128.695313 372 126 374.695313 126 378 C 126 381.304688 128.695313 384 132 384 C 135.304688 384 138 381.304688 138 378 C 138 374.695313 135.304688 372 132 372 Z M 156 372 C 152.695313 372 150 374.695313 150 378 C 150 381.304688 152.695313 384 156 384 C 159.304688 384 162 381.304688 162 378 C 162 374.695313 159.304688 372 156 372 Z M 180 372 C 176.695313 372 174 374.695313 174 378 C 174 381.304688 176.695313 384 180 384 C 183.304688 384 186 381.304688 186 378 C 186 374.695313 183.304688 372 180 372 Z M 204 372 C 200.695313 372 198 374.695313 198 378 C 198 381.304688 200.695313 384 204 384 C 207.304688 384 210 381.304688 210 378 C 210 374.695313 207.304688 372 204 372 Z M 228 372 C 224.695313 372 222 374.695313 222 378 C 222 381.304688 224.695313 384 228 384 C 231.304688 384 234 381.304688 234 378 C 234 374.695313 231.304688 372 228 372 Z M 252 372 C 248.695313 372 246 374.695313 246 378 C 246 381.304688 248.695313 384 252 384 C 255.304688 384 258 381.304688 258 378 C 258 374.695313 255.304688 372 252 372 Z M 276 372 C 272.695313 372 270 374.695313 270 378 C 270 381.304688 272.695313 384 276 384 C 279.304688 384 282 381.304688 282 378 C 282 374.695313 279.304688 372 276 372 Z M 300 372 C 296.695313 372 294 374.695313 294 378 C 294 381.304688 296.695313 384 300 384 C 303.304688 384 306 381.304688 306 378 C 306 374.695313 303.304688 372 300 372 Z M 324 372 C 320.695313 372 318 374.695313 318 378 C 318 381.304688 320.695313 384 324 384 C 327.304688 384 330 381.304688 330 378 C 330 374.695313 327.304688 372 324 372 Z M 348 372 C 344.695313 372 342 374.695313 342 378 C 342 381.304688 344.695313 384 348 384 C 351.304688 384 354 381.304688 354 378 C 354 374.695313 351.304688 372 348 372 Z M 372 372 C 368.695313 372 366 374.695313 366 378 C 366 381.304688 368.695313 384 372 384 C 375.304688 384 378 381.304688 378 378 C 378 374.695313 375.304688 372 372 372 Z "/>
</g>
</svg>
