<?xml version="1.0" encoding="UTF-8"?>
<svg xmlns="http://www.w3.org/2000/svg" xmlns:xlink="http://www.w3.org/1999/xlink" width="500pt" height="500pt" viewBox="0 0 500 500" version="1.1">
<defs>
<filter id="alpha" filterUnits="objectBoundingBox" x="0%" y="0%" width="100%" height="100%">
  <feColorMatrix type="matrix" in="SourceGraphic" values="0 0 0 0 1 0 0 0 0 1 0 0 0 0 1 0 0 0 1 0"/>
</filter>
<mask id="mask0">
  <g filter="url(#alpha)">
<rect x="0" y="0" width="500" height="500" style="fill:#000000;fill-opacity:0.301961;stroke:none;"/>
  </g>
</mask>
<clipPath id="clip2">
  <rect width="500" height="500"/>
</clipPath>
<g id="surface7" clip-path="url(#clip2)">
<path style=" stroke:none;fill-rule:nonzero;fill:#F4989E;fill-opacity:1;" d="M 224.5 256 C 224.5 250.753906 220.246094 246.5 215 246.5 C 209.753906 246.5 205.5 250.753906 205.5 256 C 205.5 261.246094 209.753906 265.5 215 265.5 C 220.246094 265.5 224.5 261.246094 224.5 256 Z "/>
</g>
<mask id="mask1">
  <g filter="url(#alpha)">
<use xlink:href="#surface7"/>
  </g>
</mask>
<clipPath id="clip3">
  <rect width="500" height="500"/>
</clipPath>
<g id="surface10" clip-path="url(#clip3)">
<path style=" stroke:none;fill-rule:nonzero;fill:#F4989E;fill-opacity:1;" d="M 296 256 C 296 250.753906 291.746094 246.5 286.5 246.5 C 281.253906 246.5 277 250.753906 277 256 C 277 261.246094 281.253906 265.5 286.5 265.5 C 291.746094 265.5 296 261.246094 296 256 Z "/>
</g>
<mask id="mask2">
  <g filter="url(#alpha)">
<use xlink:href="#surface10"/>
  </g>
</mask>
<clipPath id="clip1">
  <rect width="500" height="500"/>
</clipPath>
<g id="surface12" clip-path="url(#clip1)">
<use xlink:href="#surface7" mask="url(#mask1)"/>
<use xlink:href="#surface10" mask="url(#mask2)"/>
</g>
</defs>
<g id="surface1">
<path style=" stroke:none;fill-rule:nonzero;fill:#FFFFFF;fill-opacity:1;" d="M 103.5 277.5 C 103.5 279.984375 101.484375 282 99 282 C 96.515625 282 94.5 279.984375 94.5 277.5 C 94.5 275.015625 96.515625 273 99 273 C 101.484375 273 103.5 275.015625 103.5 277.5 Z "/>
<path style=" stroke:none;fill-rule:nonzero;fill:#FFFFFF;fill-opacity:1;" d="M 398 153 C 398 154.933594 396.433594 156.5 394.5 156.5 C 392.566406 156.5 391 154.933594 391 153 C 391 151.066406 392.566406 149.5 394.5 149.5 C 396.433594 149.5 398 151.066406 398 153 Z "/>
<path style=" stroke:none;fill-rule:nonzero;fill:#F1BC19;fill-opacity:1;" d="M 386 58 C 386 60.484375 383.984375 62.5 381.5 62.5 C 379.015625 62.5 377 60.484375 377 58 C 377 55.515625 379.015625 53.5 381.5 53.5 C 383.984375 53.5 386 55.515625 386 58 Z "/>
<path style=" stroke:none;fill-rule:nonzero;fill:#F1BC19;fill-opacity:1;" d="M 106 316 C 106 318.484375 103.984375 320.5 101.5 320.5 C 99.015625 320.5 97 318.484375 97 316 C 97 313.515625 99.015625 311.5 101.5 311.5 C 103.984375 311.5 106 313.515625 106 316 Z "/>
<path style=" stroke:none;fill-rule:nonzero;fill:#E4E4F9;fill-opacity:1;" d="M 433.5 244 C 433.5 347.554688 349.554688 431.5 246 431.5 C 142.445313 431.5 58.5 347.554688 58.5 244 C 58.5 140.445313 142.445313 56.5 246 56.5 C 349.554688 56.5 433.5 140.445313 433.5 244 Z "/>
<path style=" stroke:none;fill-rule:nonzero;fill:#F1BC19;fill-opacity:1;" d="M 428.5 69 C 428.5 80.046875 419.546875 89 408.5 89 C 397.453125 89 388.5 80.046875 388.5 69 C 388.5 57.953125 397.453125 49 408.5 49 C 419.546875 49 428.5 57.953125 428.5 69 Z "/>
<path style=" stroke:none;fill-rule:nonzero;fill:#8889B9;fill-opacity:1;" d="M 438 114 C 438 119.246094 433.746094 123.5 428.5 123.5 C 423.253906 123.5 419 119.246094 419 114 C 419 108.753906 423.253906 104.5 428.5 104.5 C 433.746094 104.5 438 108.753906 438 114 Z "/>
<path style=" stroke:none;fill-rule:nonzero;fill:#FBCD59;fill-opacity:1;" d="M 393 376.5 C 393 381.746094 388.746094 386 383.5 386 C 378.253906 386 374 381.746094 374 376.5 C 374 371.253906 378.253906 367 383.5 367 C 388.746094 367 393 371.253906 393 376.5 Z "/>
<path style=" stroke:none;fill-rule:nonzero;fill:#FBCD59;fill-opacity:1;" d="M 88 311.5 C 88 322.546875 79.046875 331.5 68 331.5 C 56.953125 331.5 48 322.546875 48 311.5 C 48 300.453125 56.953125 291.5 68 291.5 C 79.046875 291.5 88 300.453125 88 311.5 Z "/>
<path style=" stroke:none;fill-rule:nonzero;fill:#8889B9;fill-opacity:1;" d="M 128.5 432 C 128.5 437.246094 124.246094 441.5 119 441.5 C 113.753906 441.5 109.5 437.246094 109.5 432 C 109.5 426.753906 113.753906 422.5 119 422.5 C 124.246094 422.5 128.5 426.753906 128.5 432 Z "/>
<path style=" stroke:none;fill-rule:nonzero;fill:#FFFFFF;fill-opacity:1;" d="M 386 145.5 C 386 150.46875 381.96875 154.5 377 154.5 C 372.03125 154.5 368 150.46875 368 145.5 C 368 140.53125 372.03125 136.5 377 136.5 C 381.96875 136.5 386 140.53125 386 145.5 Z "/>
<path style=" stroke:none;fill-rule:nonzero;fill:#FFFFFF;fill-opacity:1;" d="M 99 251 C 99 257.902344 93.402344 263.5 86.5 263.5 C 79.597656 263.5 74 257.902344 74 251 C 74 244.097656 79.597656 238.5 86.5 238.5 C 93.402344 238.5 99 244.097656 99 251 Z "/>
<path style=" stroke:none;fill-rule:nonzero;fill:#D8AD8F;fill-opacity:1;" d="M 304 215 C 304.5 208 302.5 201.5 303 198 C 296.5 190 292.5 181 284 175.5 C 274 169.5 263 165 252 162 C 224.5 155 198 175 189.5 200.5 C 189.5 200.5 189.5 201 189.5 201 C 190.5 205.5 191 210.5 191 215 C 183.5 215 180 219 182.5 226.5 C 182.5 226.5 185.5 239 187 245 C 187.5 248.5 190.5 250.5 194 250.5 C 194 254.5 194 258.5 194 262.5 C 194 267.5 195.5 272 198 276 C 205 286.5 242 310 250.5 309.5 C 265 309.5 293.5 285 300.5 273 C 302 270.5 302.5 268 303 265 C 303 260.5 303 255.5 303 251 C 306 250.5 308.5 248.5 309 245.5 C 311 239.5 313.5 227 313.5 227 C 316.5 219 311 215 304 215 Z "/>
<path style=" stroke:none;fill-rule:nonzero;fill:#B2876B;fill-opacity:1;" d="M 326 336.5 L 321.5 335 C 315.5 332.5 277.5 319.5 277.5 319.5 C 275 319 273 317 271.5 314.5 C 270.5 310 270 305 270.5 300.5 C 264 303.5 257.5 305.5 250.5 307.5 C 241.5 308.5 226 296.5 226 296.5 C 226 296.5 225.5 311 225 314 C 224 317 222 319 219 319.5 L 182.5 331.5 C 179 332.5 175.5 334 172 336 C 164 341 158.5 349 156.5 358 C 156.5 358.5 156.5 359.5 156 361 C 155.5 363 155 365 155 367 C 155 369 154.5 401 154.5 403.5 C 188.5 429.5 211.5 425.5 261.5 429.5 C 282 431 320 413 344 400.5 C 341.5 356 346 342.5 326 336.5 Z "/>
<use xlink:href="#surface12" mask="url(#mask0)"/>
<path style=" stroke:none;fill-rule:nonzero;fill:#472B29;fill-opacity:1;" d="M 195.5 254 C 195 254 194.5 253.5 194.5 253 L 190.5 215 C 190.5 214.5 191 214 191.5 214 C 192 214 192.5 214.5 192.5 215 L 196.5 253 C 196.5 253.5 196.5 254 195.5 254 Z "/>
<path style=" stroke:none;fill-rule:nonzero;fill:#472B29;fill-opacity:1;" d="M 302.5 252 C 302 252 301.5 251.5 301.5 251 L 304 212.5 C 304 212 304.5 211.5 305 211.5 C 305.5 211.5 306 212 306 212.5 L 303.5 251 C 303.5 251.5 303 252 302.5 252 Z "/>
<path style=" stroke:none;fill-rule:nonzero;fill:#6D1B18;fill-opacity:1;" d="M 233.5 275.5 C 233.5 276.5 233 277 233 278 C 233 284.5 240.5 290 249.5 290 C 258.5 290 266 284.5 266 278 C 266 277 266 276.5 265.5 275.5 Z "/>
<path style=" stroke:none;fill-rule:nonzero;fill:#EE3E54;fill-opacity:1;" d="M 258.5 288 C 253.5 284 246.5 284 241 288 C 246.5 290.5 252.5 290.5 258.5 288 Z "/>
<path style=" stroke:none;fill-rule:nonzero;fill:#FDFCEF;fill-opacity:1;" d="M 238 275.5 L 238 277.5 C 238 279.5 240.5 281 243 281 L 255.5 281 C 258.5 281 260.5 279.5 260.5 277.5 L 260.5 275.5 Z "/>
<path style=" stroke:none;fill-rule:nonzero;fill:#472B29;fill-opacity:1;" d="M 249.5 291 C 240 291 232 285 232 278 C 232 277 232 276.5 232.5 275.5 C 232.5 275 233 275 233.5 275 L 265.5 275 C 266 275 266.5 275.5 266.5 275.5 C 266.5 276.5 267 277 267 278 C 267 285 259 291 249.5 291 Z M 234.5 276.5 C 234.5 277 234.5 277.5 234.5 278 C 234.5 284 241.5 289 250 289 C 258.5 289 265.5 284 265.5 278 C 265.5 277.5 265.5 277 265.5 276.5 Z "/>
<path style=" stroke:none;fill-rule:nonzero;fill:#472B29;fill-opacity:0.411765;" d="M 249.5 266.5 C 253 266.5 256.5 265 259 262.5 C 259 262 259 262 259 261.5 C 258.5 261.5 258.5 261.5 258 261.5 C 256 264 252.5 265 249.5 265 C 246.5 265 243 264 241 261.5 C 241 261.5 240.5 261.5 240.5 261.5 L 240 261.5 C 240 262 240 262 240 262.5 C 242.5 265 246 266.5 249.5 266.5 Z "/>
<path style=" stroke:none;fill-rule:nonzero;fill:#472B29;fill-opacity:0.411765;" d="M 254 298.5 C 254.5 298 254 297.5 254 297.5 L 245.5 297.5 C 245.5 297.5 245 297.5 245 298 C 245 298 245 298.5 245.5 298.5 Z "/>
<path style=" stroke:none;fill-rule:nonzero;fill:#512C2B;fill-opacity:1;" d="M 240 209.5 C 228.5 206 217 205 205 206 C 204.5 206 204 206.5 204 207 C 204 207.5 204.5 208 205 208 C 205 208 229 212 236.5 215 L 237 215 C 237.5 215 237.5 215 238 214.5 L 241 211.5 C 241 211.5 241 211 241 210.5 C 240.5 209.5 240.5 209.5 240 209.5 Z "/>
<path style=" stroke:none;fill-rule:nonzero;fill:#512C2B;fill-opacity:1;" d="M 259 208.5 C 270.5 206 282.5 205 294.5 206.5 C 295 206.5 295.5 207 295.5 207.5 C 295.5 208 295 208.5 294.5 208.5 C 294.5 208.5 270.5 211.5 262.5 213.5 L 262 213.5 C 261.5 213.5 261.5 213.5 261 213 L 258.5 210 C 258.5 209.5 258.5 209.5 258.5 209 C 258.5 209 258.5 208.5 259 208.5 Z "/>
<path style=" stroke:none;fill-rule:nonzero;fill:#472B29;fill-opacity:1;" d="M 223 219 C 220.5 219 218.5 220.5 217.5 223 C 218 223 218 223 218.5 223 C 220.5 223 222 225 222 227.5 C 222 229.5 220.5 231 218.5 231 C 218 231 217.5 231 217 230.5 C 217.5 234 220 236.5 223.5 236.5 C 228.5 235.5 231 230.5 230 226 C 229 222.5 226.5 220 223 219 Z "/>
<path style=" stroke:none;fill-rule:nonzero;fill:#472B29;fill-opacity:1;" d="M 275 219 C 273 219 271 220 270 222 C 272 221.5 274 223 274.5 225 C 275 227 273.5 229 271.5 229.5 C 270.5 229.5 269 229 268.5 228 C 269.5 231.5 273.5 234 277 232.5 C 280.5 231 283 227.5 281.5 224 C 281 221 278 219 275 219 Z "/>
<path style=" stroke:none;fill-rule:nonzero;fill:#8889B9;fill-opacity:1;" d="M 208 323.5 C 215.5 329.5 269.5 332.5 284.5 321 L 307.5 329 L 314 416.5 C 314 416.5 260 446 179.5 417.5 L 183 331.5 Z "/>
<path style=" stroke:none;fill-rule:nonzero;fill:#472B29;fill-opacity:1;" d="M 251.5 308 C 242 308 227.5 300 227 299.5 C 226.5 299 226 298.5 226.5 298 C 227 297.5 227.5 297 228 297.5 C 228 297.5 244 306 252.5 305.5 C 259.5 304 266.5 301.5 273 298 C 273.5 297.5 274.5 298 274.5 298.5 C 275 299 274.5 300 274 300 C 267.5 304 260 306.5 252.5 308 C 252 308 252 308 251.5 308 Z "/>
<path style=" stroke:none;fill-rule:nonzero;fill:#472B29;fill-opacity:1;" d="M 246 432.5 C 215 432.5 183.5 424.5 155.5 408 C 155.5 408 155 408 155 407.5 L 154 407 C 153.5 406.5 153 406 152.5 405.5 C 152 405 152 404.5 152 403.5 C 152 403.5 152 402.5 152 401.5 C 151 354.5 162 339 171 334 C 174.5 332 178 330.5 181.5 329.5 L 218 317.5 C 220.5 317 222 315.5 222.5 313.5 C 223 311.5 223.5 304.5 223.5 300.5 L 223.5 300 C 213.5 294 204 286.5 196 278 C 192.5 273.5 191 268 191.5 263 L 191.5 253.5 C 188 252.5 185.5 249.5 184.5 246 C 182.5 240.5 180 228 180 227.5 C 178 222.5 179.5 219 181 217 C 182 215.5 184.5 213.5 188.5 213 C 188.5 212.5 188.5 211.5 188.5 211 C 187 208.5 186.5 205.5 186 202.5 C 186 171.5 213.5 146 247.5 146 C 281.5 146 309 171 309 202 C 309 205.5 308 208.5 307 211 C 307 211.5 307 212 307 212.5 C 311 213 314 214.5 316 217 C 317.5 219 318.5 222 317 227 C 317 227 317 227.5 317 227.5 C 317 228 316.5 230.5 315.5 233 C 314.5 237 313 242.5 312 245.5 C 311.5 248.5 309 251 306 252.5 L 306 264.5 C 306 268 305 271 303.5 273.5 C 295 285 285 294.5 273 302.5 C 273 306 273 309.5 274 313 C 274.5 314.5 276 315.5 278 316 C 279.5 316.5 316.5 329 322.5 331.5 L 326.5 333 C 344.5 338.5 345 362 346 394.5 L 346 398.5 C 346 399.5 345.5 400 345 400.5 C 315 422.5 280.5 432.5 246 432.5 Z M 158 404 C 215.5 437.5 285.5 435.5 341 399.5 L 341 397 C 340.5 365 340 344 325.5 339.5 L 321 337.5 C 315 335 277.5 322 277 322 C 274 321 271 319 270 315.5 C 268.5 310.5 268.5 306 268.5 301.5 C 268.5 300.5 269 300 269.5 299.5 C 281 292 291 282.5 299.5 271.5 C 300.5 269.5 301 267 301.5 265 L 301.5 251 C 301.5 249.5 302.5 248.5 303.5 248.5 C 305.5 248.5 307 247 307.5 245 C 308.5 241.5 310 236.5 311 232.5 C 312 229 312.5 227.5 312.5 226.5 C 313 224 313 222.5 312 221 C 310.5 219.5 308 218.5 304.5 218.5 C 304 218.5 303 218.5 302.5 218 C 302 217.5 301.5 217 301.5 216 C 301.5 212.5 301.5 210.5 302.5 209.5 C 303.5 207.5 304 205 304 203 C 304 175 278.5 152 247.5 152 C 216.5 152 191 175 191 203 C 191 205 192 207.5 193 209.5 C 193 209.5 193 210 193 210.5 C 193 212.5 193.5 214 193.5 216 C 193.5 216.5 193.5 217.5 193 218 C 192.5 218.5 192 219 191 219 C 188 219 186 219.5 185 221 C 184 222.5 184.5 225 185 227 C 185 227.5 188 239.5 189.5 245.5 C 190 248 192 249.5 194 249.5 C 194.5 249.5 195.5 250 196 250 C 196.5 250.5 196.5 251 196.5 252 L 196.5 264 C 196.5 268.5 197.5 272.5 200 276 C 208 284.5 217 292 227.5 297.5 C 228.5 298 229 299 229 300 L 229 302 C 228.5 308 228 313.5 228 315.5 C 227 319.5 223.5 322.5 219.5 323.5 L 183 335.5 C 179.5 336.5 176 338 173 339.5 C 166 343 155 355.5 156.5 402.5 C 156.5 403 156.5 403.5 156.5 403.5 C 156.5 403.5 157 404 157 404 Z "/>
<path style=" stroke:none;fill-rule:nonzero;fill:#3A2221;fill-opacity:1;" d="M 292.5 138.5 C 292.5 137.5 292.5 136.5 292 135.5 C 292 134.5 292.5 133.5 292.5 132.5 C 292.5 126 288 121 282 119 C 281 110.5 274 104.5 266 104.5 C 263 98 256.5 94.5 249.5 94.5 C 243 94.5 237 97.5 233.5 103.5 C 232.5 103 231 103 229.5 103 C 221.5 102.5 215 109 214.5 116.5 C 214.5 116.5 214.5 117 214.5 117 C 207.5 118.5 202.5 125 202.5 132 C 202.5 135.5 204 139 206.5 142 C 204.5 144 203.5 147 203.5 149.5 C 204 157.5 210.5 163.5 218.5 163 C 220.5 163 222.5 162.5 224.5 162 C 225 168.5 230.5 173.5 237.5 173.5 C 239 173.5 240 173.5 241.5 173 C 245 177 250 179.5 255.5 179 C 264 179.5 271.5 173.5 273 165 C 279 163 283 158 283.5 152 C 289 150 292.5 144.5 292.5 138.5 Z "/>
<path style=" stroke:none;fill-rule:nonzero;fill:#512C2B;fill-opacity:1;" d="M 248.5 134.5 C 194 134.5 174.5 180.5 191 226 C 191.5 227 193 228 194 227.5 C 194.5 227 195 226.5 195.5 226 C 197.5 200 210 178.5 248.5 189.5 C 287 178.5 299.5 200 301.5 226 C 302 227.5 303 228 304.5 228 C 305.5 228 306 227.5 306 226.5 C 322 180.5 302.5 134.5 248.5 134.5 Z "/>
<path style=" stroke:none;fill-rule:nonzero;fill:#EE3E54;fill-opacity:1;" d="M 241.5 217 C 231 204 190.5 213 190.5 213 C 191.5 216 192 219 192.5 221.5 C 195.5 222 195.5 228.5 196 231 C 197.5 243 205.5 251.5 222 251 C 233.5 251 243 242 243.5 230.5 C 244 226.5 243 221.5 241.5 217 Z M 239.5 231.5 C 239.5 241 231.5 249 222 249 C 222 249 221.5 249 221.5 249 C 220.5 249 219.5 249 218.5 249 C 202 249 199 234.5 198.5 225 C 198.5 219.5 202.5 215 207.5 214.5 C 210.5 214.5 214 214 218 214.5 C 230.5 214.5 236 217.5 237 220 C 239 224 240 228 239.5 231.5 Z "/>
<path style=" stroke:none;fill-rule:nonzero;fill:#EE3E54;fill-opacity:1;" d="M 253 231 C 253 242.5 262.5 252 274 251.5 C 290.5 252 298.5 243 300 231.5 C 300.5 229 300.5 222.5 303.5 222 C 304 219 304.5 216 305.5 213.5 C 305.5 213.5 265.5 204.5 254.5 217.5 C 253.5 221.5 252.5 226.5 253 231 Z M 259.5 220 C 261 217.5 266.5 214.5 278.5 214.5 C 282.5 214.5 286 214.5 289 214.5 C 294 215 298 219.5 298 225 C 297.5 234 295 249 278 249 C 277 249 276 249 275 249 C 265.5 249.5 257.5 241.5 257 232 C 257 232 257 231.5 257 231.5 C 256.5 227.5 257.5 223.5 259.5 220 Z "/>
<path style=" stroke:none;fill-rule:nonzero;fill:#EE3E54;fill-opacity:1;" d="M 255.5 227.5 C 253.5 226 250.5 225 248 225 C 245.5 225 243 225.5 241 227 C 240 225 239.5 223 239 221 L 258 221 Z "/>
<path style=" stroke:none;fill-rule:nonzero;fill:#FDFCEE;fill-opacity:1;" d="M 420.5 358.5 C 420.5 398.265625 388.265625 430.5 348.5 430.5 C 308.734375 430.5 276.5 398.265625 276.5 358.5 C 276.5 318.734375 308.734375 286.5 348.5 286.5 C 388.265625 286.5 420.5 318.734375 420.5 358.5 Z "/>
<path style=" stroke:none;fill-rule:nonzero;fill:#472B29;fill-opacity:1;" d="M 348.5 432.5 C 307.5 432.5 274.5 399.5 274.5 358.5 C 274.5 317.5 307.5 284.5 348.5 284.5 C 389.5 284.5 422.5 317.5 422.5 358.5 C 422.5 399.5 389 432.5 348.5 432.5 Z M 348.5 288.5 C 309.5 288.5 278 320 278 359 C 278 398 309.5 429.5 348.5 429.5 C 387.5 429.5 419 398 419 359 C 419 320 387 288.5 348.5 288.5 Z "/>
<path style=" stroke:none;fill-rule:nonzero;fill:#F1BC19;fill-opacity:1;" d="M 408 358.5 C 408 391.359375 381.359375 418 348.5 418 C 315.640625 418 289 391.359375 289 358.5 C 289 325.640625 315.640625 299 348.5 299 C 381.359375 299 408 325.640625 408 358.5 Z "/>
<path style=" stroke:none;fill-rule:nonzero;fill:#472B29;fill-opacity:1;" d="M 348.5 419.5 C 315 419.5 287.5 392 287.5 358.5 C 287.5 325 315 297.5 348.5 297.5 C 382 297.5 409.5 325 409.5 358.5 C 409.5 392 382 419.5 348.5 419.5 Z M 348.5 300 C 316 300 290 326.5 290 358.5 C 290 390.5 316 417 348.5 417 C 381 417 407 391 407 358.5 C 407 326 380.5 300 348.5 300 Z "/>
<path style=" stroke:none;fill-rule:nonzero;fill:#F5E690;fill-opacity:0.4;" d="M 348.5 308 C 374 308 397 324 405.5 347.5 C 399.5 316 369 295 337.5 301 C 314 305.5 295.5 324 291 347.5 C 300 324 323 308 348.5 308 Z "/>
<path style=" stroke:none;fill-rule:nonzero;fill:#B2AB9A;fill-opacity:1;" d="M 363.5 350.5 L 363.5 336.5 C 363 328.5 356.5 322.5 348.5 322.5 C 340.5 322.5 333.5 328.5 333 336.5 L 333 350.5 L 338.5 350.5 L 338.5 336.5 C 339 331.5 344 328 349 328.5 C 353 329 356.5 332.5 357 336.5 L 357 350.5 Z "/>
<path style=" stroke:none;fill-rule:nonzero;fill:#472B29;fill-opacity:1;" d="M 339 352 L 333.5 352 C 333 352 332 351.5 332 350.5 L 332 336.5 C 333 327.5 340 321.5 348.5 321.5 C 357 321.5 364 328 364.5 336.5 L 364.5 350.5 C 364.5 351 364.5 351 364 351.5 C 363.5 352 363.5 352 363 352 L 356.5 352 C 356 352 355.5 351.5 355.5 350.5 L 355.5 336.5 C 355 333 352 330 348.5 329.5 C 344 329 340 332 339.5 336.5 L 339.5 350.5 C 340 351.5 339.5 352 339 352 Z M 334.5 349.5 L 337.5 349.5 L 337.5 337 C 338 334 339.5 331.5 341.5 330 C 343.5 328.5 346.5 327.5 349.5 328 C 354.5 328.5 358 332.5 358.5 337 L 358.5 350 L 362.5 350 L 362.5 337 C 362 330 356 324.5 349 324.5 C 341.5 324.5 335.5 330 335 337.5 Z "/>
<path style=" stroke:none;fill-rule:nonzero;fill:#CBC9BC;fill-opacity:1;" d="M 373.5 367 C 373.5 380.808594 362.308594 392 348.5 392 C 334.691406 392 323.5 380.808594 323.5 367 C 323.5 353.191406 334.691406 342 348.5 342 C 362.308594 342 373.5 353.191406 373.5 367 Z "/>
<path style=" stroke:none;fill-rule:nonzero;fill:#472B29;fill-opacity:1;" d="M 348.5 393.5 C 334 393.5 322 381.5 322 367 C 322 352.5 334 340.5 348.5 340.5 C 363 340.5 375 352.5 375 367 C 375 381.5 363 393.5 348.5 393.5 Z M 348.5 343 C 335.5 343 324.5 353.5 324.5 367 C 324.5 380 335 391 348.5 391 C 361.5 391 372.5 380.5 372.5 367 C 372.5 354 361.5 343 348.5 343 Z "/>
<path style=" stroke:none;fill-rule:nonzero;fill:#F1BC19;fill-opacity:1;" d="M 366.5 367 C 366.5 376.941406 358.441406 385 348.5 385 C 338.558594 385 330.5 376.941406 330.5 367 C 330.5 357.058594 338.558594 349 348.5 349 C 358.441406 349 366.5 357.058594 366.5 367 Z "/>
<path style=" stroke:none;fill-rule:nonzero;fill:#472B29;fill-opacity:1;" d="M 348.5 385.5 C 338 385.5 330 377 330 367 C 330 356.5 338.5 348.5 348.5 348.5 C 359 348.5 367 357 367 367 C 367 377.5 358.5 385.5 348.5 385.5 Z M 348.5 350 C 339 350 331.5 357.5 331.5 367 C 331.5 376.5 339 384 348.5 384 C 358 384 365.5 376.5 365.5 367 C 365.5 357.5 358 350 348.5 350 Z "/>
<path style=" stroke:none;fill-rule:nonzero;fill:#C48014;fill-opacity:1;" d="M 352.5 374 L 350 367 C 350 366.5 349.5 366 350 366 C 351 365.5 352 364 351.5 362.5 C 351 361 349.5 360 347.5 360 C 346 360.5 345 361.5 345 363 C 345 364 345.5 365 346.5 365.5 C 347 365.5 346.5 366 346.5 366.5 L 344 373.5 L 352.5 373.5 Z "/>
<path style=" stroke:none;fill-rule:nonzero;fill:#472B29;fill-opacity:1;" d="M 352.5 374.5 L 344.5 374.5 C 344.5 374.5 344 374.5 344 374 C 344 374 344 373.5 344 373.5 L 346.5 366.5 C 346.5 366.5 346.5 366 346.5 366 C 345.5 365.5 345 364 345 363 C 345 361 346 359.5 348 359 C 350 358.5 352 359.5 352.5 362 C 353 363.5 352.5 365 351 366 C 351 366 351 366.5 351 366.5 L 353.5 373.5 C 353.5 373.5 353.5 374 353.5 374 C 352.5 374.5 352.5 374.5 352.5 374.5 Z M 345 373.5 L 351.5 373.5 L 349.5 367 C 349 366 349.5 366 350 365.5 C 351 365 351.5 364 351 362.5 C 350.5 361 349 360.5 348 360.5 C 347 361 346 362 346 363 C 346 364 346.5 364.5 347 365 C 347 365 347.5 365 347.5 365 C 347.5 365.5 347.5 365.5 347.5 366 C 347.5 366 347.5 366 347.5 366.5 Z M 350.5 366.5 Z "/>
</g>
</svg>
