<?xml version="1.0" encoding="UTF-8"?>
<svg xmlns="http://www.w3.org/2000/svg" xmlns:xlink="http://www.w3.org/1999/xlink" width="500pt" height="500pt" viewBox="0 0 500 500" version="1.1">
<g id="surface1">
<path style=" stroke:none;fill-rule:nonzero;fill:#FFFFFF;fill-opacity:1;" d="M 103.5 279.5 C 103.5 281.984375 101.484375 284 99 284 C 96.515625 284 94.5 281.984375 94.5 279.5 C 94.5 277.015625 96.515625 275 99 275 C 101.484375 275 103.5 277.015625 103.5 279.5 Z "/>
<path style=" stroke:none;fill-rule:nonzero;fill:#FFFFFF;fill-opacity:1;" d="M 398 155 C 398 156.933594 396.433594 158.5 394.5 158.5 C 392.566406 158.5 391 156.933594 391 155 C 391 153.066406 392.566406 151.5 394.5 151.5 C 396.433594 151.5 398 153.066406 398 155 Z "/>
<path style=" stroke:none;fill-rule:nonzero;fill:#F1BC19;fill-opacity:1;" d="M 385.5 59.5 C 385.5 61.984375 383.484375 64 381 64 C 378.515625 64 376.5 61.984375 376.5 59.5 C 376.5 57.015625 378.515625 55 381 55 C 383.484375 55 385.5 57.015625 385.5 59.5 Z "/>
<path style=" stroke:none;fill-rule:nonzero;fill:#F1BC19;fill-opacity:1;" d="M 106 317.5 C 106 319.984375 103.984375 322 101.5 322 C 99.015625 322 97 319.984375 97 317.5 C 97 315.015625 99.015625 313 101.5 313 C 103.984375 313 106 315.015625 106 317.5 Z "/>
<path style=" stroke:none;fill-rule:nonzero;fill:#E4E4F9;fill-opacity:1;" d="M 433 246 C 433 349.554688 349.054688 433.5 245.5 433.5 C 141.945313 433.5 58 349.554688 58 246 C 58 142.445313 141.945313 58.5 245.5 58.5 C 349.054688 58.5 433 142.445313 433 246 Z "/>
<path style=" stroke:none;fill-rule:nonzero;fill:#F1BC19;fill-opacity:1;" d="M 428.5 70.5 C 428.5 81.546875 419.546875 90.5 408.5 90.5 C 397.453125 90.5 388.5 81.546875 388.5 70.5 C 388.5 59.453125 397.453125 50.5 408.5 50.5 C 419.546875 50.5 428.5 59.453125 428.5 70.5 Z "/>
<path style=" stroke:none;fill-rule:nonzero;fill:#8889B9;fill-opacity:1;" d="M 438 116 C 438 121.246094 433.746094 125.5 428.5 125.5 C 423.253906 125.5 419 121.246094 419 116 C 419 110.753906 423.253906 106.5 428.5 106.5 C 433.746094 106.5 438 110.753906 438 116 Z "/>
<path style=" stroke:none;fill-rule:nonzero;fill:#FBCD59;fill-opacity:1;" d="M 393 378 C 393 383.246094 388.746094 387.5 383.5 387.5 C 378.253906 387.5 374 383.246094 374 378 C 374 372.753906 378.253906 368.5 383.5 368.5 C 388.746094 368.5 393 372.753906 393 378 Z "/>
<path style=" stroke:none;fill-rule:nonzero;fill:#FBCD59;fill-opacity:1;" d="M 87.5 313.5 C 87.5 324.546875 78.546875 333.5 67.5 333.5 C 56.453125 333.5 47.5 324.546875 47.5 313.5 C 47.5 302.453125 56.453125 293.5 67.5 293.5 C 78.546875 293.5 87.5 302.453125 87.5 313.5 Z "/>
<path style=" stroke:none;fill-rule:nonzero;fill:#8889B9;fill-opacity:1;" d="M 128.5 434 C 128.5 439.246094 124.246094 443.5 119 443.5 C 113.753906 443.5 109.5 439.246094 109.5 434 C 109.5 428.753906 113.753906 424.5 119 424.5 C 124.246094 424.5 128.5 428.753906 128.5 434 Z "/>
<path style=" stroke:none;fill-rule:nonzero;fill:#FFFFFF;fill-opacity:1;" d="M 385.5 147.5 C 385.5 152.46875 381.46875 156.5 376.5 156.5 C 371.53125 156.5 367.5 152.46875 367.5 147.5 C 367.5 142.53125 371.53125 138.5 376.5 138.5 C 381.46875 138.5 385.5 142.53125 385.5 147.5 Z "/>
<path style=" stroke:none;fill-rule:nonzero;fill:#FFFFFF;fill-opacity:1;" d="M 99 252.5 C 99 259.402344 93.402344 265 86.5 265 C 79.597656 265 74 259.402344 74 252.5 C 74 245.597656 79.597656 240 86.5 240 C 93.402344 240 99 245.597656 99 252.5 Z "/>
<path style=" stroke:none;fill-rule:nonzero;fill:#895F3F;fill-opacity:1;" d="M 337.5 351 C 335.5 340 331 334 321 331 C 320.5 331 320 330.5 319.5 330.5 L 316.5 329.5 C 310.5 327 273 313 273 313 C 270 312 268 310 267 307.5 C 266 303 265.5 298 266 293 C 257.5 296 249 298.5 240.5 300 C 231 301 210.5 288.5 210.5 288.5 C 210.5 288.5 210 303.5 209.5 307 C 208.5 310 206 312 203 312.5 L 167.5 325.5 C 163.5 326.5 160 328 156.5 330 C 149 335 143.5 342 140.5 351 C 140.5 351 138 367.5 138 368 C 138 370.5 137.5 373 137.5 375.5 C 176.5 402 207.5 409 261 407 C 285.5 406 321.5 394 340.5 384.5 C 339 363 337.5 351 337.5 351 Z "/>
<path style=" stroke:none;fill-rule:nonzero;fill:#FDFCEF;fill-opacity:1;" d="M 273 316 L 268.5 314.5 C 267.5 314 266.5 313.5 265.5 313 C 256.5 316.5 257.5 320 247 320 C 251 320 243 318 247 320 C 232 321.5 214.5 325 205 313.5 C 204.5 314 204 314 203 314.5 L 197 316.5 C 204.5 337 222 410.5 229 431 L 246 431 C 255 412 275.5 339 283.5 319.5 Z "/>
<path style=" stroke:none;fill-rule:nonzero;fill:#FBCD59;fill-opacity:1;" d="M 228.5 342 L 219.5 321.5 L 256 321.5 L 247 342 C 244.5 347 238 349 233 346 C 231 345.5 229.5 344 228.5 342 Z "/>
<path style=" stroke:none;fill-rule:nonzero;fill:#FBCD59;fill-opacity:1;" d="M 245.5 350 L 250.5 429.5 L 225.5 430.5 L 232 350 C 236 342.5 241.5 342.5 245.5 350 Z "/>
<path style=" stroke:none;fill-rule:nonzero;fill:#E1E0D8;fill-opacity:1;" d="M 211 307.5 L 202 314 L 221.5 344.5 L 239.5 321.5 C 239.5 321.5 212 314 211 307.5 Z "/>
<path style=" stroke:none;fill-rule:nonzero;fill:#E1E0D8;fill-opacity:1;" d="M 265 307.5 L 274 314 L 254.5 344.5 L 236.5 321.5 C 236.5 321.5 263.5 314 265 307.5 Z "/>
<path style=" stroke:none;fill-rule:nonzero;fill:#8889B9;fill-opacity:1;" d="M 142 342.5 C 144 337.5 158 327.5 163.5 326 L 171 323.5 L 200 312 C 207.5 331.5 225.5 412 234 431 C 218 431.5 202 429.5 186.5 425.5 C 168.5 418.5 151.5 409.5 135.5 399 C 136.5 395 135 358.5 142 342.5 Z "/>
<path style=" stroke:none;fill-rule:nonzero;fill:#8889B9;fill-opacity:1;" d="M 334.5 339 C 332.5 334 328.5 333.5 323 332 L 315.5 329 L 275 315.5 C 267.5 335 248.5 411.5 241.5 432 C 260.5 433 279.5 430.5 298 425.5 C 329.5 416.5 342.5 408.5 342 408 C 341 404 341.5 354.5 334.5 339 Z "/>
<path style=" stroke:none;fill-rule:nonzero;fill:#61638E;fill-opacity:1;" d="M 171.5 419.5 C 170.5 419.5 169.5 418.5 169.5 418 L 169.5 398 C 169.5 397 170.5 396.5 171.5 396.5 C 172.5 396.5 173.5 397.5 173.5 398 L 173.5 418 C 173 419 172.5 419.5 171.5 419.5 Z "/>
<path style=" stroke:none;fill-rule:nonzero;fill:#61638E;fill-opacity:1;" d="M 303 423 C 302 423 301.5 422 301.5 421.5 L 301.5 398.5 C 301.5 397.5 302.5 397 303 397 C 303.5 397 304.5 398 304.5 398.5 L 304.5 421.5 C 305 422.5 304 423 303 423 Z "/>
<path style=" stroke:none;fill-rule:nonzero;fill:#A3754F;fill-opacity:1;" d="M 299 218.5 L 297 218.5 C 292 218.5 291 220 291 217 C 291.5 211.5 290.5 190 290.5 189 C 290.5 166.5 267 148.5 238 147.5 L 237 147.5 C 208.5 148.5 185 166.5 185 189 C 185 190 184 211.5 184.5 217 C 184.5 220 183.5 218 178.5 218.5 L 176.5 218.5 C 171.5 218.5 167.5 222 166 226.5 C 166.5 227 169 245 173 252.5 C 175 256.5 178.5 257 182 259.5 C 183.5 261 184.5 262.5 185 264.5 C 187.5 272.5 192 279.5 198.5 285 C 201.5 288 221 308.5 238 307.5 C 255 306.5 274.5 287.5 277 285 C 283.5 279.5 288 272.5 290.5 264.5 C 290.5 262.5 291.5 260.5 293.5 259.5 C 297 257 300.5 256.5 302.5 252.5 C 306.5 245.5 309 227 309.5 226.5 C 308 221.5 304 218.5 299 218.5 Z "/>
<path style=" stroke:none;fill-rule:nonzero;fill:#472B29;fill-opacity:1;" d="M 236.5 309.5 C 226 309.5 213 302 198 287 L 197 286 C 190.5 280.5 185.5 273 183 264.5 C 183 262.5 182 261 181 260 C 180 259.5 179 258.5 178 258 C 175.5 256.5 173 255.5 171.5 252 C 168.5 247 166.5 237 165.5 230.5 C 165.5 230 165 228 165 227.5 L 164.5 227 L 165 225.5 C 166.5 220 171.5 216.5 177 216.5 L 179 216.5 C 181 216.5 182.5 216.5 183 217 C 182.5 212.5 183 198 183.5 192 C 183.5 190.5 183.5 189.5 183.5 189.5 C 183.5 166.5 207 147.5 237.5 146.5 L 238.5 146.5 C 269 147.5 292.5 166.5 292.5 189.5 C 292.5 189.5 292.5 190.5 292.5 192 C 292.5 198 293 212.5 293 217.5 C 294 217.5 295.5 217 297 217 L 299 217 C 304.5 217 309.5 221 311 226.5 L 311.5 228 L 311 228.5 C 311 229.5 310.5 231 310 232.5 C 309 238.5 307 248.5 304 254 C 302.5 257 300 258.5 297.5 260 C 296.5 260.5 295.5 261 294.5 262 C 293.5 263 292.5 264.5 292.5 266 C 290 274.5 285 282 278.5 287.5 L 278 288 C 262.5 302 249.5 309.5 238.5 310.5 C 237.5 309.5 237 309.5 236.5 309.5 Z M 168.5 226 C 169 227 169 228 169.5 231 C 170.5 237 172.5 246.5 175 251.5 C 176.5 254 178 254.5 180 256 C 181 256.5 182.5 257.5 183.5 258 C 185.5 259.5 187 262 187 264.5 C 189.5 272 193.5 278.5 200 284 L 201 285 C 219.5 303.5 231.5 307 238 306.5 C 245 306 257 302 275.5 285 L 276.5 284.5 C 282.5 279.5 287 272.5 289.5 265 C 289.5 263 291 260.5 293 259 C 294.5 258 295.5 257.5 296.5 257 C 298.5 256 300.5 255 301.5 252.5 C 304 248 306 238 307 232 C 307.5 229.5 308 228 308 227 C 306.5 223.5 303.5 221 299.5 221 L 297.5 221 C 296 221 295 221 294 221.5 C 293 221.5 291.5 222 290.5 221 C 289.5 220 289.5 218.5 289.5 218 C 290 214 289.5 198.5 289 193 C 289 191.5 289 190.5 289 190.5 C 289 169 266.5 152 238.5 150.5 L 237.5 150.5 C 209 151.5 187 169 187 190 C 187 190 187 191 187 192.5 C 187 198 186.5 213.5 186.5 217.5 C 186.5 218.5 186.5 220 185.5 220.5 C 184.5 221.5 183.5 221 182.5 221 C 181.5 221 180.5 220.5 179 220.5 L 177 220.5 C 173 220 169.5 222.5 168.5 226 Z "/>
<path style=" stroke:none;fill-rule:nonzero;fill:#512C2B;fill-opacity:1;" d="M 238.5 253.5 C 242 253.5 245 252 247.5 249.5 C 247.5 249.5 247.5 249 247.5 248.5 C 247.5 248.5 247 248.5 246.5 248.5 C 242 252.5 235 252.5 230.5 248.5 C 230.5 248.5 230 248.5 230 248.5 C 229.5 248.5 229.5 249 229.5 249 C 229.5 249 229.5 249.5 229.5 249.5 C 231.5 252 235 253.5 238.5 253.5 Z "/>
<path style=" stroke:none;fill-rule:nonzero;fill:#512C2B;fill-opacity:1;" d="M 227.5 207.5 L 229.5 203.5 C 220 201.5 210.5 201.5 201 204.5 L 203.5 208.5 C 211.5 206 219.5 205.5 227.5 207.5 Z "/>
<path style=" stroke:none;fill-rule:nonzero;fill:#512C2B;fill-opacity:1;" d="M 273 207.5 L 275 203.5 C 265.5 201.5 256 201.5 246.5 204.5 L 249 208.5 C 257.5 206 265.5 205.5 273 207.5 Z "/>
<path style=" stroke:none;fill-rule:nonzero;fill:#512C2B;fill-opacity:1;" d="M 214 213.5 C 212 213.5 210 215 209 217 C 209.5 217 209.5 217 210 217 C 212 217 213.5 218.5 213.5 220.5 C 213.5 222.5 212 224 210 224 C 209.5 224 209 224 208.5 223.5 C 209 226.5 211.5 229 214.5 229 C 219 228 221.5 223.5 220.5 219 C 219.5 216.5 217.5 214 214 213.5 Z "/>
<path style=" stroke:none;fill-rule:nonzero;fill:#512C2B;fill-opacity:1;" d="M 262 213.5 C 260 213.5 258.5 214.5 257.5 216 C 258 216 258.5 216 258.5 216 C 260.5 216 262 217.5 262 219.5 C 262 221.5 260.5 223 258.5 223 C 257.5 223 256.5 222.5 256 221.5 C 255 225 257.5 228.5 261 229 C 264.5 230 268 227.5 268.5 224 C 268.5 223 268.5 222 268.5 221 C 269 217.5 266 214 262 213.5 Z "/>
<path style=" stroke:none;fill-rule:nonzero;fill:#512C2B;fill-opacity:1;" d="M 264.5 263 C 264.5 263 264.5 262.5 264.5 262 C 264.5 262 264 262 263.5 262 C 256 267 247 269.5 238 269 C 229 269.5 220 267 212 262 C 212 262 212 262 211.5 262 C 211.5 262 211 262 211 262 C 211 262 211 262.5 211 263 C 227.5 274 248.5 274 264.5 263 Z "/>
<path style=" stroke:none;fill-rule:nonzero;fill:#512C2B;fill-opacity:1;" d="M 189 200.5 C 191.5 189.5 195 179 200.5 169.5 C 199 167 195.5 166 193 167 C 186 180 182 194.5 182.5 209.5 C 183 216.5 184 223 186 229.5 C 187.5 219.5 186.5 210 189 200.5 Z "/>
<path style=" stroke:none;fill-rule:nonzero;fill:#512C2B;fill-opacity:1;" d="M 287.5 200.5 C 285 189.5 281.5 179 276 169.5 C 277.5 167 281 166 283.5 167 C 290.5 180 294.5 194.5 294 209.5 C 293.5 216.5 292.5 223 290.5 229.5 C 289 219.5 290 210 287.5 200.5 Z "/>
<path style=" stroke:none;fill-rule:nonzero;fill:#512C2B;fill-opacity:1;" d="M 245 289 C 245.5 289 245.5 288.5 245.5 288 C 245.5 287.5 245 287 245 287 L 232.5 287 C 232 287 232 287.5 232 288 C 232 288.5 232 289 232.5 289 Z "/>
<path style=" stroke:none;fill-rule:nonzero;fill:#472B29;fill-opacity:1;" d="M 243.5 433 C 199 433 170.5 424 136 401 C 135 400.5 135 399.5 135 398.5 C 135 398 135 396 135 393 C 135 382 135.5 359.5 138 351 C 140 341.5 146 333 155 328.5 C 158.5 326.5 162.5 325 166.5 323.5 L 202 310.5 C 204.5 310 206.5 308.5 207 306.5 C 207 305 207.5 300.5 207.5 296.5 C 204 294 200.5 291.5 197 288.5 C 190.5 282.5 185.5 275 183 266.5 C 183 266.5 183 266 183 266 C 183 264.5 182 263.5 181 262.5 C 180 262 179 261.5 178 260.5 C 175.5 259 173 257.5 171 254.5 C 167 246 164.5 237 164 227.5 C 164 227 164 227 164 226.5 C 165.5 220.5 171 217 177 216.5 L 179 216.5 C 180.5 216.5 181.5 216.5 182.5 216.5 C 182.5 210.5 182.5 197.5 183 192 C 183 190.5 183 189.5 183 189.5 C 183 165.5 207 146 238 145 L 239 145 C 270 146 294 165.5 294 189.5 C 294 189.5 294 190.5 294 192 C 294 198 294.5 211 294.5 216.5 C 295.5 216.5 296.5 216.5 298 216.5 L 300 216.5 C 306 216.5 311 220.5 313 226.5 C 313 227 313 227 313 227.5 C 312 237 310 246 306 254.5 C 304 258 301.5 259.5 299 261 C 298 261.5 297 262 296 263 C 295 264 294.5 265 294 266.5 C 294 266.5 294 267 294 267 C 291.5 275.5 286.5 283 280 289 C 276.5 292 272.5 295 269 298 C 269 301 269.5 304.5 270.5 307.5 C 271 309 273 310.5 275 311 C 276.5 311.5 312.5 325 318.5 327.5 L 323 329 C 333.5 332 339 338.5 341.5 351 C 341.5 351 341.5 351 341.5 351.5 C 341.5 351.5 343 386 344 407.5 C 344 408.5 343.5 409.5 342.5 410 C 322.5 420 285.5 432 262 433 C 255 433 249 433 243.5 433 Z M 140 397.5 C 177 422.5 207.5 430 261 427.5 C 283.5 426.5 318 415.5 338 406 C 336.5 385.5 335 354.5 335 352 C 333 341.5 329 336.5 320 334 L 315 332 C 309 329.5 272 316 271.5 315.5 C 268 314.5 265.5 312 264 308.5 C 262.5 304 262 300 262.5 296 C 262.5 295 263 294.5 263.5 294 C 267.5 291 271.5 288 275 285 C 281 280 285 273 287.5 265.5 C 288 263 289 260.5 291 259 C 292.5 258 293.5 257.5 294.5 256.5 C 296.5 255.5 298 254.5 299.5 252.5 C 303 245 305.5 236.5 306 228 C 305 224.5 301.5 222.5 298 222 L 296 222 C 294.5 222 293.5 222 292.5 222.5 C 291 222.5 289.5 223 288.5 222 C 287.5 221 287.5 219 287.5 218.5 C 288 214.5 287.5 199 287 193 C 287 191.5 287 190.5 287 190.5 C 287 169.5 265 152 237 151 L 236 151 C 208 152 186 169 186 190.5 C 186 190.5 186 191.5 186 193 C 186 199 185.5 214 185.5 218.5 C 185.5 219.5 185.5 221 184.5 222 C 183.5 223 182 223 181 222.5 C 180 222.5 179 222 177.5 222.5 L 175.5 222.5 C 172 222.5 168.5 225 167.5 228.5 C 168.5 237 170.5 245.5 174 253.5 C 175 255.5 176.5 256.5 179 257.5 C 180 258 181.5 259 182.5 259.5 C 184.5 261.5 186 263.5 186.5 266.5 C 189 274 193 280.5 199 286 C 202.5 289 206.5 292 210 294.5 C 210.5 295 211 295.5 211 296.5 C 211 301 210.5 307 210 309 C 208.5 313 205.5 316 201.5 316.5 L 166.5 329.5 C 162.5 330.5 159 332 156 334 C 148.5 338 143 345 141.5 353 C 139 361.5 139 384.5 138.5 394 C 140 395 140 396.5 140 397.5 Z "/>
<path style=" stroke:none;fill-rule:nonzero;fill:#895D3D;fill-opacity:1;" d="M 299.5 242.5 L 296.5 242 L 297.5 233 L 292.5 235 L 291.5 232 L 299 229 C 299.5 229 300 229 300.5 229 C 301 229.5 301 230 301 230.5 Z "/>
<path style=" stroke:none;fill-rule:nonzero;fill:#895D3D;fill-opacity:1;" d="M 178 241 L 176.5 229.5 C 176.5 229 176.5 228.5 177 228 C 177.5 227.5 178 227.5 178.5 228 L 186 231 L 185 234 L 180 232 L 181 241 Z "/>
<path style=" stroke:none;fill-rule:nonzero;fill:#472B29;fill-opacity:1;" d="M 185 263 C 184.5 263 184 262.5 184 262 L 185 219 C 185 218.5 185.5 218 186 218 C 186.5 218 187 218.5 187 219 L 186 262 C 186 262.5 185.5 263 185 263 Z "/>
<path style=" stroke:none;fill-rule:nonzero;fill:#472B29;fill-opacity:1;" d="M 292 263 C 291.5 263 291 262.5 291 262 L 290 219 C 290 218.5 290.5 218 291 218 C 291.5 218 292 218.5 292 219 L 293 262 C 293 262.5 292.5 263 292 263 Z "/>
<path style=" stroke:none;fill-rule:nonzero;fill:#512C2B;fill-opacity:1;" d="M 295 206 C 297.5 181.5 290.5 167 285 160.5 C 271.5 149.5 255 143.5 237.5 143.5 C 223 143.5 208.5 147.5 196.5 155.5 C 187 165.5 175.5 184 181 206 C 182 217 183.5 228 186 238.5 C 187 228.5 187 206.5 189 197 C 190.5 190 192.5 183 195.5 176.5 C 209 161 266 162 280.5 176.5 C 283 183 285.5 190 287 197 C 289 206.5 289 228.5 291 238 C 293 227.5 294.5 217 295 206 Z "/>
<path style=" stroke:none;fill-rule:nonzero;fill:#F1BC19;fill-opacity:1;" d="M 232 216.5 C 222 204.5 185 213 185 213 C 185.5 215.5 186.5 218.5 187 221 C 189.5 221 190 227.5 190 229.5 C 191.5 240.5 198.5 248.5 214 248 C 224.5 248 233.5 239.5 233.5 229 C 234 225 233.5 220.5 232 216.5 Z M 230 230 C 230 239 222.5 246 214 246 C 214 246 214 246 213.5 246 L 210.5 246 C 195 246 192.5 232.5 192 224 C 192 219 195.5 215 200 214.5 C 203 214.5 206 214.5 209.5 214.5 C 221 214.5 226 217 227 219.5 C 229.5 222.5 230.5 226.5 230 230 Z "/>
<path style=" stroke:none;fill-rule:nonzero;fill:#F1BC19;fill-opacity:1;" d="M 242.5 229 C 242.5 239.5 251.5 248 262 248 C 277.5 248.5 284.5 240.5 286 229.5 C 286 227 286.5 221 289 221 C 289.5 218.5 290 215.5 291 213 C 291 213 254 204.5 244 216.5 C 243 220.5 242.5 225 242.5 229 Z M 248.5 219 C 250 217 255 214 266 214 C 269.5 214 273 214 275.5 214 C 280.5 214.5 284 218.5 283.5 223.5 C 283 232 280.5 245.5 265 245.5 L 262 245.5 C 253 245.5 246 239 245.5 230 C 245.5 230 245.5 230 245.5 229.5 C 246 226 246.5 222.5 248.5 219 Z "/>
<path style=" stroke:none;fill-rule:nonzero;fill:#F1BC19;fill-opacity:1;" d="M 245 226 C 243 224.5 240.5 224 238 224 C 235.5 224 233.5 224.5 231.5 226 L 229.5 220 L 247 220 Z "/>
<path style=" stroke:none;fill-rule:nonzero;fill:#5E2E2E;fill-opacity:1;" d="M 306.5 171 C 305 173.5 302.5 175.5 300 176.5 C 299.5 175.5 299 174.5 298.5 173.5 C 300.5 171 301.5 167.5 301 164.5 C 300 158 293.5 153.5 287 154.5 C 287 153 287 151 287 149.5 C 285.5 141 277.5 135 269 136.5 C 267.5 136.5 266 137 265 138 C 265 138 265 137.5 265 137.5 C 263 127.5 253 120.5 243 122.5 C 237 123.5 232 127 229 132 C 224.5 130 219 129.5 214 130 C 201.5 132 192.5 142.5 194 153 C 194 153.5 194 154 194.5 154.5 C 192 156.5 190 159.5 189.5 162.5 C 189 171 195.5 178 203.5 178.5 C 207.5 179 211.5 178.5 215 176.5 C 221 187 233 192.5 245 190 C 250 189 255 187 259 184 C 262.5 189 269 192 275 191 C 276.5 190.5 278 190.5 279.5 189.5 C 282.5 192 286 193.5 290 193 C 292.5 192.5 295 191.5 296.5 189.5 C 302 188 306.5 183 306.5 171 Z "/>
<path style=" stroke:none;fill-rule:nonzero;fill:#FDFCEE;fill-opacity:1;" d="M 420 360.5 C 420 400.265625 387.765625 432.5 348 432.5 C 308.234375 432.5 276 400.265625 276 360.5 C 276 320.734375 308.234375 288.5 348 288.5 C 387.765625 288.5 420 320.734375 420 360.5 Z "/>
<path style=" stroke:none;fill-rule:nonzero;fill:#472B29;fill-opacity:1;" d="M 348 434.5 C 307 434.5 274 401.5 274 360.5 C 274 319.5 307 286.5 348 286.5 C 389 286.5 422 319.5 422 360.5 C 422 401 389 434.5 348 434.5 Z M 348 290 C 309 290 277.5 321.5 277.5 360.5 C 277.5 399.5 309 431 348 431 C 387 431 418.5 399.5 418.5 360.5 C 418.5 321.5 387 290 348 290 Z "/>
<path style=" stroke:none;fill-rule:nonzero;fill:#F1BC19;fill-opacity:1;" d="M 407.5 360.5 C 407.5 393.359375 380.859375 420 348 420 C 315.140625 420 288.5 393.359375 288.5 360.5 C 288.5 327.640625 315.140625 301 348 301 C 380.859375 301 407.5 327.640625 407.5 360.5 Z "/>
<path style=" stroke:none;fill-rule:nonzero;fill:#472B29;fill-opacity:1;" d="M 348 421 C 314.5 421 287 393.5 287 360 C 287 326.5 314.5 299 348 299 C 381.5 299 409 326.5 409 360 C 409 394 382 421 348 421 Z M 348 302 C 316 302 289.5 328 289.5 360.5 C 289.5 393 315.5 419 348 419 C 380.5 419 406.5 393 406.5 360.5 C 406.5 328 380.5 302 348 302 Z "/>
<path style=" stroke:none;fill-rule:nonzero;fill:#F5E690;fill-opacity:0.4;" d="M 348.5 310 C 374 310 397 325.5 406 349.5 C 400 318 369.5 297 338 303 C 314.5 307.5 296 326 291.5 349.5 C 300 325.5 323 310 348.5 310 Z "/>
<path style=" stroke:none;fill-rule:nonzero;fill:#B2AB9A;fill-opacity:1;" d="M 363.5 352.5 L 363.5 338.5 C 363 330.5 356.5 324.5 348.5 324.5 C 340.5 324.5 333.5 330.5 333 338.5 L 333 352.5 L 338.5 352.5 L 338.5 338.5 C 339 333.5 344 330 349 330.5 C 353 331 356.5 334.5 357 338.5 L 357 352.5 Z "/>
<path style=" stroke:none;fill-rule:nonzero;fill:#472B29;fill-opacity:1;" d="M 363.5 353.5 L 357 353.5 C 356.5 353.5 356 353 356 352 L 356 338 C 355.5 334.5 352.5 331.5 349 331 C 347 330.5 344.5 331.5 343 332.5 C 341.5 334 340 335.5 340 338 L 340 352 C 340 352.5 339.5 353.5 338.5 353.5 L 333 353.5 C 332.5 353.5 331.5 353 331.5 352 L 331.5 338 C 332.5 329 339.5 322.5 348.5 323 C 357 323 364 329.5 364.5 338 L 364.5 352 C 364.5 352.5 364.5 352.5 364 353 C 363.5 353.5 364 353.5 363.5 353.5 Z M 334 351 L 337 351 L 337 338.5 C 337.5 335.5 339 333 341 331.5 C 343 330 346 329 349 329.5 C 354 330 357.5 334 358 338.5 L 358 351.5 L 362 351.5 L 362 338.5 C 361.5 331.5 355.5 326 348.5 326 C 341 326 335 331.5 334.5 339 Z "/>
<path style=" stroke:none;fill-rule:nonzero;fill:#CBC9BC;fill-opacity:1;" d="M 373 368.5 C 373 382.308594 361.808594 393.5 348 393.5 C 334.191406 393.5 323 382.308594 323 368.5 C 323 354.691406 334.191406 343.5 348 343.5 C 361.808594 343.5 373 354.691406 373 368.5 Z "/>
<path style=" stroke:none;fill-rule:nonzero;fill:#472B29;fill-opacity:1;" d="M 348 395 C 333.5 395 321.5 383 321.5 368.5 C 321.5 354 333.5 342 348 342 C 362.5 342 374.5 354 374.5 368.5 C 374.5 383 362.5 395 348 395 Z M 348 345 C 335 345 324 355.5 324 369 C 324 382 334.5 393 348 393 C 361 393 372 382.5 372 369 C 372 355.5 361.5 345 348 345 Z "/>
<path style=" stroke:none;fill-rule:nonzero;fill:#F1BC19;fill-opacity:1;" d="M 366 368.5 C 366 378.441406 357.941406 386.5 348 386.5 C 338.058594 386.5 330 378.441406 330 368.5 C 330 358.558594 338.058594 350.5 348 350.5 C 357.941406 350.5 366 358.558594 366 368.5 Z "/>
<path style=" stroke:none;fill-rule:nonzero;fill:#472B29;fill-opacity:1;" d="M 348 387.5 C 337.5 387.5 329.5 379 329.5 369 C 329.5 358.5 338 350.5 348 350.5 C 358.5 350.5 366.5 359 366.5 369 C 367 379 358.5 387.5 348 387.5 Z M 348 351.5 C 338.5 351.5 331 359 331 368.5 C 331 378 338.5 385.5 348 385.5 C 357.5 385.5 365 378 365 368.5 C 365 359 357.5 351.5 348 351.5 Z "/>
<path style=" stroke:none;fill-rule:nonzero;fill:#C48014;fill-opacity:1;" d="M 352 375.5 L 350 368.5 C 350 368 349.5 367.5 350 367.5 C 351 367 351.5 365.5 351.5 364 C 351 362 349.5 361 348 361.5 C 346.5 362 344.5 363 345 365 C 345 366 345.5 367 346.5 367.5 C 347 367.5 346.5 368 346.5 368.5 L 344.5 375.5 Z "/>
<path style=" stroke:none;fill-rule:nonzero;fill:#472B29;fill-opacity:1;" d="M 344 376.5 C 343.5 376 343.5 376 343.5 375.5 L 345.5 368.5 C 345.5 368.5 345.5 368 345.5 368 C 344.5 367.5 344 366 344 365 C 343.5 363 345 361 347 360.5 C 348 360.5 349 360.5 350 361 C 351 361.5 351.5 362.5 351.5 363.5 C 352 365 351.5 366.5 350 367.5 C 350 367.5 350 368 350 368 L 352 375 C 352 375 352 375.5 352 375.5 C 352 375.5 351.5 376 351.5 376 Z M 346.5 367 C 347 367 347 367.5 346.5 367 C 347 367.5 347 368 347 368 C 347 368 347 368 347 368.5 L 345 375 L 351 375 L 349 368.5 C 349 368 349 367.5 349.5 367 C 350.5 366.5 351 365.5 350.5 364 C 350.5 363 350 362.5 349.5 362 C 349 361.5 348 361.5 347.5 361.5 C 346 361.5 345 363 345.5 364.5 C 345.5 366 346 366.5 346.5 367 Z M 350.5 368 Z "/>
</g>
</svg>
