<?xml version="1.0" encoding="UTF-8"?>
<svg xmlns="http://www.w3.org/2000/svg" xmlns:xlink="http://www.w3.org/1999/xlink" width="512pt" height="512pt" viewBox="0 0 512 512" version="1.1">
<g id="surface1">
<path style=" stroke:none;fill-rule:nonzero;fill:#747474;fill-opacity:1;" d="M 414.5 64 C 403.375 64 387.875 64.5 371.5 66 C 338.75 69.0625 300.9375 74.5625 277.5 98 C 257.8125 117.6875 217.125 169.9375 179.5 219 C 172.0625 228.6875 172.375 228.5 165.5 237.5 L 138 236 C 117.5625 234.9375 97.875 243.5625 85 259.5 L 51.5 300.5 L 35 321.5 L 61 326.5 L 113.5 337 L 175 398.5 L 185.5 451 L 191 477 L 211.5 460.5 L 252.5 427 C 268.4375 414.125 277.0625 394.4375 276 374 L 274.5 347 C 283.8125 339.9375 283.5 340.125 293.5 332.5 C 342.6875 294.8125 395.125 254.375 414.5 235 C 437.75 211.75 442.9375 173.375 446 140.5 C 449.0625 107.625 447.5 79.5 447.5 79.5 L 447 65 L 432.5 64.5 C 432.5 64.5 425.625 64 414.5 64 Z M 400 96 C 406.375 96 410.875 96.375 415.5 96.5 C 415.6875 105.8125 416.0625 115.5 414 137.5 C 411.1875 167.8125 401.9375 201.5625 391.5 212 C 377.25 226.25 323 269.4375 274 307 C 230.6875 340.1875 200.1875 363.5 191.5 370 L 142.5 321 C 149.0625 312.1875 171.5 281.5625 204.5 238.5 C 242 189.625 285.3125 135.1875 300 120.5 C 310.9375 109.5625 344.3125 100.3125 374.5 97.5 C 385.4375 96.5 393.625 96 400 96 Z M 327 152.5 C 309.125 152.5 295 167.125 295 185 C 295 202.875 309.125 217.5 327 217.5 C 344.875 217.5 359.5 202.875 359.5 185 C 359.5 167.125 344.875 152.5 327 152.5 Z M 136 268 L 142 268.5 C 132.375 281.25 116.625 301.6875 114.5 304.5 L 93 300 L 109.5 280 C 115.9375 272.0625 125.75 267.4375 136 268 Z M 99.5 351 C 85.8125 364.6875 78 383.625 72.5 399.5 C 67 415.375 64.5 428.5 64.5 428.5 L 59.5 452 L 83 447.5 C 83 447.5 95.75 445.3125 111.5 440 C 127.25 434.6875 146.1875 426.8125 160.5 412.5 L 138 390 C 130.875 397.125 116.75 403.375 104 408 C 108.875 394.6875 116 379.5625 122 373.5 Z M 243.5 370 L 244 376 C 244.5625 386.25 240.5 396.0625 232.5 402.5 L 212 419 L 207.5 397.5 C 210.3125 395.4375 230.75 379.5625 243.5 370 Z "/>
</g>
</svg>
