<?xml version="1.0" encoding="UTF-8"?>
<svg xmlns="http://www.w3.org/2000/svg" xmlns:xlink="http://www.w3.org/1999/xlink" width="96pt" height="96pt" viewBox="0 0 96 96" version="1.1">
<g id="surface1">
<path style=" stroke:none;fill-rule:nonzero;fill:#FFFFFF;fill-opacity:1;" d="M 48 12 C 37.046875 12 27.265625 16.921875 20.65625 24.65625 L 12 16 L 12 40 L 36 40 L 26.375 30.375 C 31.5 24.0625 39.265625 20 48 20 C 63.4375 20 76 32.5625 76 48 L 84 48 C 84 28.15625 67.859375 12 48 12 Z M 12 48 C 12 67.859375 28.140625 84 48 84 C 58.953125 84 68.734375 79.078125 75.328125 71.328125 L 84 80 L 84 56 L 60 56 L 69.625 65.625 C 64.5 71.9375 56.734375 76 48 76 C 32.5625 76 20 63.4375 20 48 Z "/>
</g>
</svg>
