<?xml version="1.0" encoding="UTF-8"?>
<svg xmlns="http://www.w3.org/2000/svg" xmlns:xlink="http://www.w3.org/1999/xlink" width="500pt" height="500pt" viewBox="0 0 500 500" version="1.1">
<g id="surface1">
<path style=" stroke:none;fill-rule:nonzero;fill:#C4C4C4;fill-opacity:1;" d="M 208.332031 19.839844 L 208.332031 49.601563 L 228.175781 49.601563 L 228.175781 60.492188 C 122.535156 70.53125 39.683594 159.621094 39.683594 267.855469 C 39.683594 382.796875 133.074219 476.191406 248.015625 476.191406 C 362.957031 476.191406 456.347656 382.796875 456.347656 267.855469 C 456.347656 159.621094 373.496094 70.53125 267.855469 60.492188 L 267.855469 49.601563 L 287.699219 49.601563 L 287.699219 19.839844 Z M 399.152344 51.074219 L 379.269531 70.957031 L 425.039063 116.722656 L 444.957031 96.84375 Z M 248.015625 79.363281 C 352.222656 79.363281 436.507813 163.652344 436.507813 267.855469 C 436.507813 372.0625 352.222656 456.347656 248.015625 456.347656 C 143.808594 456.347656 59.523438 372.0625 59.523438 267.855469 C 59.523438 163.652344 143.808594 79.363281 248.015625 79.363281 Z M 148.691406 158.613281 C 144.664063 158.652344 141.058594 161.09375 139.507813 164.8125 C 137.996094 168.574219 138.890625 172.835938 141.796875 175.664063 L 228.871094 262.742188 C 228.40625 264.40625 228.175781 266.113281 228.175781 267.855469 C 228.175781 278.824219 237.050781 287.699219 248.015625 287.699219 C 249.757813 287.699219 251.464844 287.464844 253.132813 287.039063 L 270.761719 304.632813 C 273.242188 307.230469 276.964844 308.277344 280.414063 307.347656 C 283.902344 306.453125 286.613281 303.742188 287.503906 300.253906 C 288.433594 296.804688 287.386719 293.085938 284.792969 290.605469 L 267.160156 272.972656 C 267.625 271.304688 267.855469 269.601563 267.855469 267.855469 C 267.855469 256.890625 258.984375 248.015625 248.015625 248.015625 C 246.273438 248.015625 244.566406 248.25 242.902344 248.675781 L 155.824219 161.636719 C 153.964844 159.699219 151.40625 158.652344 148.691406 158.613281 Z "/>
</g>
</svg>
