<?xml version="1.0" encoding="UTF-8"?>
<svg xmlns="http://www.w3.org/2000/svg" xmlns:xlink="http://www.w3.org/1999/xlink" width="512pt" height="512pt" viewBox="0 0 512 512" version="1.1">
<g id="surface1">
<path style=" stroke:none;fill-rule:nonzero;fill:#72CAAF;fill-opacity:1;" d="M 433.359375 96 L 405.359375 94.160156 C 359.574219 91.246094 315.800781 74.289063 280 45.601563 L 269.519531 36.960938 C 261.074219 30.136719 249.007813 30.136719 240.558594 36.960938 L 229.761719 45.601563 C 194.035156 74.273438 150.351563 91.253906 104.640625 94.238281 L 76.71875 96 C 63.980469 96.898438 54.34375 107.890625 55.121094 120.640625 L 60.480469 194.398438 C 66.355469 277.90625 105.246094 355.632813 168.558594 410.398438 L 240 472.71875 C 248.734375 480.25 261.664063 480.25 270.398438 472.71875 L 341.679688 410.71875 C 404.984375 355.949219 443.878906 278.222656 449.761719 194.71875 L 455.121094 120.878906 C 455.582031 114.683594 453.539063 108.5625 449.445313 103.886719 C 445.355469 99.210938 439.5625 96.367188 433.359375 96 Z "/>
<path style=" stroke:none;fill-rule:nonzero;fill:#66BFA1;fill-opacity:1;" d="M 433.359375 96 L 405.359375 94.160156 C 359.574219 91.246094 315.800781 74.289063 280 45.601563 L 269.519531 36.960938 C 265.394531 33.710938 260.289063 31.960938 255.039063 32 L 255.039063 478.398438 C 260.625 478.40625 266.027344 476.386719 270.238281 472.71875 L 341.519531 410.71875 C 404.828125 355.949219 443.71875 278.222656 449.601563 194.71875 L 454.960938 120.878906 C 455.421875 114.710938 453.398438 108.613281 449.34375 103.941406 C 445.289063 99.269531 439.535156 96.410156 433.359375 96 Z "/>
<path style=" stroke:none;fill-rule:nonzero;fill:#7DD8BA;fill-opacity:1;" d="M 251.039063 131.441406 L 260.960938 149.601563 L 279.039063 159.519531 L 260.960938 169.441406 L 251.039063 187.519531 L 241.121094 169.441406 L 223.039063 159.519531 L 241.121094 149.601563 Z "/>
<path style=" stroke:none;fill-rule:nonzero;fill:#7DD8BA;fill-opacity:1;" d="M 130.398438 251.519531 L 137.199219 264 L 149.761719 270.878906 L 137.199219 277.679688 L 130.398438 290.238281 L 123.519531 277.679688 L 111.039063 270.878906 L 123.519531 264 Z "/>
<path style=" stroke:none;fill-rule:nonzero;fill:#7DD8BA;fill-opacity:1;" d="M 324.238281 299.519531 L 328.878906 308 L 337.441406 312.71875 L 328.878906 317.359375 L 324.238281 325.839844 L 319.601563 317.359375 L 311.039063 312.71875 L 319.601563 308 Z "/>
<path style=" stroke:none;fill-rule:nonzero;fill:#FAEFDE;fill-opacity:1;" d="M 353.359375 181.839844 L 239.039063 296 L 180.71875 237.679688 C 177.546875 234.960938 172.8125 235.144531 169.859375 238.097656 C 166.90625 241.054688 166.722656 245.785156 169.441406 248.960938 L 233.441406 312.960938 C 236.558594 316.0625 241.601563 316.0625 244.71875 312.960938 L 364.71875 192.960938 C 367.4375 189.785156 367.253906 185.054688 364.300781 182.097656 C 361.34375 179.144531 356.613281 178.960938 353.441406 181.679688 Z "/>
<path style=" stroke:none;fill-rule:nonzero;fill:#8D6C9F;fill-opacity:1;" d="M 352.71875 104.800781 C 328.441406 97.644531 305.5 86.566406 284.800781 72 L 264 57.839844 C 258.496094 53.996094 251.183594 53.996094 245.679688 57.839844 L 225.28125 72 C 190.597656 96.285156 149.925781 110.617188 107.679688 113.441406 L 102.480469 113.441406 C 98.0625 113.59375 94.605469 117.300781 94.761719 121.71875 C 94.914063 126.136719 98.621094 129.59375 103.039063 129.441406 L 108.800781 129.441406 C 153.980469 126.425781 197.472656 111.097656 234.558594 85.121094 L 255.121094 70.71875 L 275.679688 85.121094 C 297.800781 100.628906 322.3125 112.410156 348.238281 120 C 352.480469 121.238281 356.921875 118.800781 358.160156 114.558594 C 359.398438 110.320313 356.960938 105.878906 352.71875 104.640625 Z "/>
<path style=" stroke:none;fill-rule:nonzero;fill:#8D6C9F;fill-opacity:1;" d="M 407.121094 113.921875 L 402.398438 113.921875 C 396.320313 113.519531 390.160156 112.878906 384.160156 112 C 379.742188 111.359375 375.640625 114.421875 375 118.839844 C 374.359375 123.257813 377.421875 127.359375 381.839844 128 C 388.238281 128.960938 394.800781 129.679688 401.359375 130.078125 L 406.640625 130.078125 C 411.058594 130.234375 414.765625 126.777344 414.921875 122.359375 C 415.074219 117.941406 411.617188 114.234375 407.199219 114.078125 Z "/>
<path style=" stroke:none;fill-rule:nonzero;fill:#8D6C9F;fill-opacity:1;" d="M 440 82.480469 L 411.039063 80.558594 C 363.613281 77.542969 318.273438 59.972656 281.199219 30.238281 L 270 21.28125 C 261.230469 14.261719 248.769531 14.261719 240 21.28125 L 228.800781 30.238281 C 191.820313 59.917969 146.597656 77.488281 99.28125 80.558594 L 70.320313 82.480469 C 57.148438 83.378906 47.175781 94.746094 48 107.921875 L 53.601563 200 C 59.613281 286.601563 99.925781 367.230469 165.601563 424 L 239.441406 488 C 248.472656 495.867188 261.925781 495.867188 270.960938 488 L 344.800781 424 C 410.46875 367.222656 450.78125 286.601563 456.800781 200 L 462.320313 107.679688 C 463.007813 94.59375 453.070313 83.378906 440 82.480469 Z M 440.878906 199.199219 C 435.34375 277.382813 400.382813 350.566406 343.039063 404 L 343.039063 403.441406 C 343.039063 399.023438 339.457031 395.441406 335.039063 395.441406 C 330.621094 395.441406 327.039063 399.023438 327.039063 403.441406 L 327.039063 418.238281 L 260.320313 476.238281 C 257.3125 478.847656 252.847656 478.847656 249.839844 476.238281 L 183.121094 418.160156 L 183.121094 403.519531 C 183.121094 399.101563 179.539063 395.519531 175.121094 395.519531 C 170.703125 395.519531 167.121094 399.101563 167.121094 403.519531 L 167.121094 404 C 109.875 350.550781 75.003906 277.40625 69.519531 199.28125 L 64 106.960938 C 63.726563 102.566406 67.050781 98.78125 71.441406 98.480469 L 100.398438 96.558594 C 150.957031 93.269531 199.277344 74.5 238.800781 42.800781 L 250 33.839844 C 252.921875 31.5 257.078125 31.5 260 33.839844 L 271.199219 42.800781 C 310.722656 74.496094 359.042969 93.265625 409.601563 96.558594 L 438.558594 98.480469 C 442.949219 98.78125 446.273438 102.566406 446 106.960938 Z "/>
<path style=" stroke:none;fill-rule:nonzero;fill:#8D6C9F;fill-opacity:1;" d="M 215.039063 395.519531 C 210.621094 395.519531 207.039063 399.101563 207.039063 403.519531 L 207.039063 419.519531 C 207.039063 423.9375 210.621094 427.519531 215.039063 427.519531 C 219.457031 427.519531 223.039063 423.9375 223.039063 419.519531 L 223.039063 403.519531 C 223.039063 399.101563 219.457031 395.519531 215.039063 395.519531 Z "/>
<path style=" stroke:none;fill-rule:nonzero;fill:#8D6C9F;fill-opacity:1;" d="M 255.039063 395.519531 C 250.621094 395.519531 247.039063 399.101563 247.039063 403.519531 L 247.039063 419.519531 C 247.039063 423.9375 250.621094 427.519531 255.039063 427.519531 C 259.457031 427.519531 263.039063 423.9375 263.039063 419.519531 L 263.039063 403.519531 C 263.039063 399.101563 259.457031 395.519531 255.039063 395.519531 Z "/>
<path style=" stroke:none;fill-rule:nonzero;fill:#8D6C9F;fill-opacity:1;" d="M 295.039063 395.519531 C 290.621094 395.519531 287.039063 399.101563 287.039063 403.519531 L 287.039063 419.519531 C 287.039063 423.9375 290.621094 427.519531 295.039063 427.519531 C 299.457031 427.519531 303.039063 423.9375 303.039063 419.519531 L 303.039063 403.519531 C 303.039063 399.101563 299.457031 395.519531 295.039063 395.519531 Z "/>
</g>
</svg>
